<mxfile modified="2021-04-03T11:55:08.409Z" host="app.diagrams.net" agent="5.0 (Macintosh)" etag="zInGJWHSOdpjbWxeUiw7" version="14.5.6" type="github" pages="2">
  <diagram id="TezqZf63po1DLjSW2U6N" name="Logical topology">
    <mxGraphModel dx="-1054" dy="638" grid="1" gridSize="10" guides="1" tooltips="1" connect="1" arrows="1" fold="1" page="0" pageScale="1" pageWidth="1100" pageHeight="1700" background="none" math="0" shadow="0">
      <root>
        <mxCell id="0" />
        <mxCell id="1" parent="0" />
        <mxCell id="RALPsLNxrUUUZBOMkeJz-2" value="" style="fontColor=#0066CC;verticalAlign=top;verticalLabelPosition=bottom;labelPosition=center;align=center;html=1;outlineConnect=0;fillColor=#d6d6d6;strokeColor=#999;gradientColor=none;gradientDirection=north;strokeWidth=2;shape=mxgraph.networks.modem;" parent="1" vertex="1">
          <mxGeometry x="2096.5" y="380" width="100" height="30" as="geometry" />
        </mxCell>
        <mxCell id="RALPsLNxrUUUZBOMkeJz-4" value="" style="edgeStyle=orthogonalEdgeStyle;rounded=1;orthogonalLoop=1;jettySize=auto;html=1;endArrow=none;endFill=0;strokeColor=#000000;strokeWidth=2;endSize=6;" parent="1" edge="1">
          <mxGeometry relative="1" as="geometry">
            <Array as="points" />
            <mxPoint x="2146" y="590" as="sourcePoint" />
            <mxPoint x="2146" y="410" as="targetPoint" />
          </mxGeometry>
        </mxCell>
        <mxCell id="RALPsLNxrUUUZBOMkeJz-7" value="" style="edgeStyle=orthogonalEdgeStyle;rounded=1;orthogonalLoop=1;jettySize=auto;html=1;endArrow=none;endFill=0;strokeColor=#CC0000;strokeWidth=2;endSize=6;entryX=0.495;entryY=0.854;entryDx=0;entryDy=0;entryPerimeter=0;" parent="1" edge="1" target="RALPsLNxrUUUZBOMkeJz-3">
          <mxGeometry relative="1" as="geometry">
            <Array as="points" />
            <mxPoint x="2146" y="800" as="sourcePoint" />
            <mxPoint x="2146" y="620" as="targetPoint" />
          </mxGeometry>
        </mxCell>
        <mxCell id="RALPsLNxrUUUZBOMkeJz-33" value="Hug Server" style="fontColor=#000000;verticalAlign=bottom;verticalLabelPosition=top;labelPosition=center;align=right;html=1;outlineConnect=0;fillColor=#F9EBFF;strokeColor=#9673A6;gradientColor=none;gradientDirection=north;strokeWidth=2;shape=stencil(vVXhboMgEH4afi6xQB39ubjtPZhiNUMxgHV9+52izWTYTFOXmHDcfdzHdxc8RBJT8EYgHHHTiNQi8oowvnBd8g8JbgyRwjlpFLl9zSvhXElrrKrAlbRWtbY3VG15WQvtoJ3Dxc/DUfKGohfw9t/NIEmutDhr1dbZDOHhJrSxWn2Krsxs0RMM60BCHCXC739Jk3FTNNxaoWtwTJYTCg5IFvnrgTljBQvkLQK4IHo6U6lL348vd5mx5le3w4zd47+bV0JblvIeIrw5L9cpGHrMO+bR19l2HryRjpcwnRDNUy75eQw8SCOlLEy4r0p6nBf3xMIyt1/Gk+nx/Usr6XHezJ1bGccsRLevxvG35Rd2N40eHTltf+xrVHqlpXs/Sxym21flQmkfpzGVyoh1R0kC4IUR8Qual1K62bdI8mOmAmBhrIIxhN3cHyLf);labelBackgroundColor=none;arcSize=2;fontSize=22;whiteSpace=wrap;spacingLeft=0;spacingRight=15;connectable=0;container=1;collapsible=0;recursiveResize=0;dashed=1;" parent="1" vertex="1">
          <mxGeometry x="2091.5" y="730" width="668.5" height="400" as="geometry" />
        </mxCell>
        <mxCell id="RALPsLNxrUUUZBOMkeJz-45" value="&lt;b&gt;&lt;i&gt;&lt;font style=&quot;font-size: 15px&quot;&gt;hug&lt;/font&gt;&lt;/i&gt;&lt;/b&gt;&lt;br&gt;Red Hat Enterprise&lt;br&gt;Linux (v8.2 Ootpa)&lt;br&gt;&lt;b&gt;&lt;font color=&quot;#cc0000&quot;&gt;10.0.1.6&lt;/font&gt;&lt;/b&gt;" style="fontColor=#000000;verticalAlign=middle;verticalLabelPosition=middle;labelPosition=right;align=left;html=1;outlineConnect=0;fillColor=#d6d6d6;strokeColor=#999;gradientColor=none;gradientDirection=north;strokeWidth=2;shape=stencil(fZFPD8IgDMU/DUcWBD14NFNP3j13DDeSDRaK/769xWrMTDTh0P76Au8VYWrsYXJCK8DJ2SzMVmh9geShGQhrmvQMF1pxH2B0jI4+tPGKxA6xizy9ztRmJ9RGlFp9ClOfYnJdiufQzhRfurfaj9AVi5gsX97nPKEwpNvTwQzZ2yq5todc2TgSG3xDtvbMqGgShFYCosuFD5AdFm5jmkpP9qUkqYxhuFd46TjMjd+Ti1f0O/fqK+pqtqj1sloyKP7+5DM1CX6sgornmL/nOXkA);labelBackgroundColor=none;aspect=fixed;" parent="RALPsLNxrUUUZBOMkeJz-33" vertex="1">
          <mxGeometry x="468.5" y="20" width="60" height="60" as="geometry" />
        </mxCell>
        <mxCell id="RALPsLNxrUUUZBOMkeJz-46" value="" style="edgeStyle=orthogonalEdgeStyle;rounded=1;orthogonalLoop=1;jettySize=auto;html=1;endArrow=none;endFill=0;strokeColor=#9673a6;strokeWidth=3;dashed=1;fillColor=#e1d5e7;comic=0;dashPattern=4 3 4 3 4 3 18 3;" parent="RALPsLNxrUUUZBOMkeJz-33" edge="1">
          <mxGeometry relative="1" as="geometry">
            <mxPoint x="470" y="100" as="sourcePoint" />
            <mxPoint x="650" y="100" as="targetPoint" />
          </mxGeometry>
        </mxCell>
        <mxCell id="RALPsLNxrUUUZBOMkeJz-63" value="" style="rounded=1;whiteSpace=wrap;html=1;strokeColor=#2496ed;fillColor=#edf6fd;shadow=0;dashed=1;fontSize=22;fontStyle=0;align=left;verticalAlign=bottom;strokeWidth=2;glass=0;spacingLeft=0;arcSize=2;container=1;collapsible=0;recursiveResize=0;" parent="RALPsLNxrUUUZBOMkeJz-33" vertex="1">
          <mxGeometry x="218.5" y="190" width="201.5" height="160" as="geometry">
            <mxRectangle x="520" y="1140" width="50" height="40" as="alternateBounds" />
          </mxGeometry>
        </mxCell>
        <mxCell id="RALPsLNxrUUUZBOMkeJz-65" value="&lt;font size=&quot;1&quot;&gt;&lt;span style=&quot;font-size: 12px&quot;&gt;freenas/nextcloud&lt;br&gt;&lt;i&gt;&lt;b&gt;&lt;font color=&quot;#808080&quot;&gt;storage.snugg.ie&lt;br&gt;&lt;/font&gt;&lt;/b&gt;&lt;/i&gt;&lt;b&gt;&lt;font color=&quot;#cc0000&quot;&gt;10.0.1.?&lt;/font&gt;&lt;/b&gt;&lt;br&gt;&lt;/span&gt;&lt;/font&gt;" style="fontColor=#000000;verticalAlign=middle;verticalLabelPosition=middle;labelPosition=right;align=left;html=1;outlineConnect=0;fillColor=#d6d6d6;strokeColor=#999;gradientColor=none;gradientDirection=north;strokeWidth=2;shape=stencil(fVHbrsIgEPwaXpsKRxMfTT3GB+MvmLVwKBG6BFovf+/iakxPogkkM7MTmAGhmtxBNELWkKNpB6HWQsozJAdHT7KkScfiTNbMewiGpa1xQYP3JO7QIo8vE7v6FfVKFFy/gWr+MBmbcOz1xPHP93K7ALZkzKnlw7thiFko8m1ojdEj6OriTi4Y7aDCZEkuPBZOuMUQsM+EFmXTuZu9uQ6tx1EfSvYqny3nv/IVz7K3CXt1Uz+Tp1nOmZY4X+qohgwfmhN4jPk7HpM7);labelBackgroundColor=none;aspect=fixed;spacingLeft=5;" parent="RALPsLNxrUUUZBOMkeJz-63" vertex="1">
          <mxGeometry x="10" y="10" width="40" height="40" as="geometry" />
        </mxCell>
        <mxCell id="33FjBkdzOVDyzK0zfluO-1" value="&lt;font&gt;&lt;font&gt;freenas/plexmediaserver&lt;br&gt;&lt;b&gt;&lt;font color=&quot;#cc0000&quot;&gt;10.0.1.?&lt;/font&gt;&lt;/b&gt;&lt;/font&gt;&lt;br&gt;&lt;/font&gt;" style="fontColor=#000000;verticalAlign=middle;verticalLabelPosition=middle;labelPosition=right;align=left;html=1;outlineConnect=0;fillColor=#d6d6d6;strokeColor=#999;gradientColor=none;gradientDirection=north;strokeWidth=2;shape=stencil(fZFNDsIgEIVPw7JNhROYqisXXoHSEYjyE6A/3t6h1Jg20aSLN+99hZmBsDYq7oHQhkcPIhF2IpSOPGjePdGmmKhiHmhTassNFOv2hBmNq5OuRNMGZWfSHEnWzVew9u4CyOAG22+IHfehteEy9xeDKIerlHwkDLkLfoFPtdRJDd0QIQhnE9hUC2cw89ietiIrE6veiQcELAyPaRHayJWq8N8RQu2tLIPM5a514temmnb72O8nN/ZnMNYi8GMHKJa4PMqSvAE=);labelBackgroundColor=none;aspect=fixed;spacingLeft=5;" parent="RALPsLNxrUUUZBOMkeJz-63" vertex="1">
          <mxGeometry x="10" y="50" width="40" height="40" as="geometry" />
        </mxCell>
        <mxCell id="RALPsLNxrUUUZBOMkeJz-62" value="&lt;font size=&quot;1&quot;&gt;&lt;i&gt;&lt;b style=&quot;font-size: 15px&quot;&gt;hug-homesweet&lt;/b&gt;&lt;/i&gt;&lt;/font&gt;&lt;br&gt;&lt;font&gt;Cloud Storage/NAS&lt;br&gt;FreeNAS&lt;br&gt;&lt;/font&gt;&lt;font style=&quot;font-weight: bold&quot; color=&quot;#cc0000&quot;&gt;10.0.1.?&lt;/font&gt;" style="fontColor=#000000;verticalAlign=middle;verticalLabelPosition=middle;labelPosition=right;align=left;html=1;outlineConnect=0;fillColor=#d6d6d6;strokeColor=#000000;gradientColor=none;gradientDirection=north;strokeWidth=2;shape=stencil(fVFdD8IgDPw1PEoQNNFHM/XJP1FnZUs2WCh+/XvLqjEzxoSH691RrkW5ihoYUFkDNGCdldsqa6+QWjh2TFtWGiHn1kgdoEehtnhsITB1iD6KeJuY3U6ZjSrYfICrzjGhT/ESThPHl+/tbnvwJSGlWpo3OQ+kHPv2fDzmuoEQsCNdx54ZIMJMDMabBRCmK6ZZxzFLeU6IAWis9RC8RL9L97VeroR4CDGzejEdzhi9WkyWs37tpkT6M5Kryuu/p2cwyvIho/IE);labelBackgroundColor=none;glass=0;dashed=1;aspect=fixed;spacingBottom=25;" parent="RALPsLNxrUUUZBOMkeJz-33" vertex="1">
          <mxGeometry x="228.5" y="130" width="60" height="60" as="geometry" />
        </mxCell>
        <mxCell id="RALPsLNxrUUUZBOMkeJz-67" value="&lt;font size=&quot;1&quot;&gt;&lt;i&gt;&lt;b style=&quot;font-size: 15px&quot;&gt;hug-byproxy&lt;/b&gt;&lt;/i&gt;&lt;/font&gt;&lt;br&gt;Reverse Proxying &#39;n&#39; Web&lt;br&gt;&lt;font&gt;Fedora Server 32&lt;br&gt;&lt;/font&gt;&lt;font style=&quot;font-weight: bold&quot; color=&quot;#cc0000&quot;&gt;10.0.1.7&lt;/font&gt;" style="fontColor=#000000;verticalAlign=middle;verticalLabelPosition=middle;labelPosition=right;align=left;html=1;outlineConnect=0;fillColor=#d6d6d6;strokeColor=#000000;gradientColor=none;gradientDirection=north;strokeWidth=2;shape=stencil(fVHbCgIhEP0aHxPTgnqMrX3qH2LaNVdad0S32983NkRsUKBybsgZFabKHUQrtIIcbTMKsxVaXyF5OPYka3I6FudaMR8gWJa29uhhIGmPDtm8TcJmJ9RGFKw+wFQnTNYlvAztJPGVe6d9AFca5tTw5d04xiwM5Wpal9gjtPLmzz7Y1oPE5EguPBZOuMEQcMiETNknOmrbYoJDT8Vlvjouf+f713K5YuHBwkzLxXQ8paZv8+al0p+RTEWBH9MTeNn8IS/nCQ==);labelBackgroundColor=none;glass=0;dashed=1;aspect=fixed;spacingBottom=25;" parent="RALPsLNxrUUUZBOMkeJz-33" vertex="1">
          <mxGeometry x="18.5" y="130" width="60" height="60" as="geometry" />
        </mxCell>
        <mxCell id="RALPsLNxrUUUZBOMkeJz-68" value="" style="rounded=1;whiteSpace=wrap;html=1;strokeColor=#2496ed;fillColor=#edf6fd;shadow=0;dashed=1;fontSize=22;fontStyle=0;align=left;verticalAlign=bottom;strokeWidth=2;glass=0;spacingLeft=0;arcSize=2;container=1;collapsible=0;recursiveResize=0;" parent="RALPsLNxrUUUZBOMkeJz-33" vertex="1">
          <mxGeometry x="18.5" y="190" width="170" height="160" as="geometry">
            <mxRectangle x="520" y="1140" width="50" height="40" as="alternateBounds" />
          </mxGeometry>
        </mxCell>
        <mxCell id="RALPsLNxrUUUZBOMkeJz-70" value="&lt;font size=&quot;1&quot;&gt;&lt;span style=&quot;font-size: 12px&quot;&gt;nginx/nginx&lt;br&gt;&lt;font color=&quot;#808080&quot;&gt;&lt;b&gt;&lt;i&gt;*.snugg.ie&lt;/i&gt;&lt;/b&gt;&lt;/font&gt;&lt;br&gt;&lt;/span&gt;&lt;/font&gt;" style="fontColor=#000000;verticalAlign=middle;verticalLabelPosition=middle;labelPosition=right;align=left;html=1;outlineConnect=0;fillColor=#d6d6d6;strokeColor=#999;gradientColor=none;gradientDirection=north;strokeWidth=2;shape=stencil(fVFbDsIgEDwNv02F9gCmavwwXsGsLVIiFAKt1tu7dH2kRk2AzMxOyAwwUcUWvGQ8h+hl3TOxYpxfIGg4GpQ5TloSFzwn3oGVJG2ltg0Yg+LOKUfj68wu1ixfsoTzNxDVyQWpghu6Zub48D3d2oJKGWOo6fK2731kAn0bXIM3Dprsqs/aykZD5oJCOXGfOOLaWeu6mFDaJR57pbvxYDB3Fi+Kso90/aPojVhRfiv2ehdeZgUJKc2fNqJCw4/iCKYx/cY0uQM=);labelBackgroundColor=none;aspect=fixed;spacingLeft=5;" parent="RALPsLNxrUUUZBOMkeJz-68" vertex="1">
          <mxGeometry x="10" y="10" width="40" height="40" as="geometry" />
        </mxCell>
        <mxCell id="RALPsLNxrUUUZBOMkeJz-71" value="pihole/pihole" style="fontColor=#000000;verticalAlign=middle;verticalLabelPosition=middle;labelPosition=right;align=left;html=1;outlineConnect=0;fillColor=#d6d6d6;strokeColor=#999;gradientColor=none;gradientDirection=north;strokeWidth=2;shape=stencil(fZBNDsIgEIVPM9sG4QSm1pVRd64REYjyE2it3t7B0Zg20YTFvPc+mBlAtMXKpIEzWZJWPYgVcH6T2cnjFW2OiSVzwRnpIL0ma+9srBTbRBMpHCew6IAtodbsW4j2HLM2OQ7hNCFm3Id2XprapGRFj9u+TwUEcms8rnHeDLlR0aPaHS5b1YUmBUMD3enOe/bHRI2zzeab1gZ/BhQtAj92weIV0/e+kic=);labelBackgroundColor=none;aspect=fixed;spacingLeft=5;" parent="RALPsLNxrUUUZBOMkeJz-68" vertex="1">
          <mxGeometry x="10" y="50" width="40" height="40" as="geometry" />
        </mxCell>
        <mxCell id="33FjBkdzOVDyzK0zfluO-2" value="&lt;font size=&quot;1&quot;&gt;&lt;i&gt;&lt;b style=&quot;font-size: 15px&quot;&gt;hug-minehugs&lt;/b&gt;&lt;/i&gt;&lt;/font&gt;&lt;br&gt;&lt;font&gt;Game Hosting&lt;br&gt;Ubuntu 20.04 LTS&lt;br&gt;&lt;/font&gt;&lt;font style=&quot;font-weight: bold&quot; color=&quot;#cc0000&quot;&gt;10.0.1.11&lt;/font&gt;" style="fontColor=#000000;verticalAlign=middle;verticalLabelPosition=middle;labelPosition=right;align=left;html=1;outlineConnect=0;fillColor=#d6d6d6;strokeColor=#000000;gradientColor=none;gradientDirection=north;strokeWidth=2;shape=stencil(fVHJDsIgEP0ajhIETfRoqp68ejbTFimxLIHW5e8dnBhTE01K87bAG2Cqyh1EzaSAHHUzMLVlUl4hWah7lCU6HYlzKYh7cJqkra4teJQOwQQyb5Ow2jGxYQWLD1DVOSRtUhh9O0l85d5p68CUhjk1tHk3DDEzhbk9fmPsA7T8Zi/W6dYCD8mgXHgsHHETnAs+I1qXtcDfsR79MJ56LG5rnq+G6t/phDVfrkh4kDCTfDEdUIjp7bx5KfVnKFVh4Mf8CF42PcnLeQI=);labelBackgroundColor=none;glass=0;dashed=1;aspect=fixed;spacingBottom=25;" parent="RALPsLNxrUUUZBOMkeJz-33" vertex="1">
          <mxGeometry x="448.5" y="130" width="60" height="60" as="geometry" />
        </mxCell>
        <mxCell id="33FjBkdzOVDyzK0zfluO-3" value="" style="rounded=1;whiteSpace=wrap;html=1;strokeColor=#2496ed;fillColor=#edf6fd;shadow=0;dashed=1;fontSize=22;fontStyle=0;align=left;verticalAlign=bottom;strokeWidth=2;glass=0;spacingLeft=0;arcSize=2;container=1;collapsible=0;recursiveResize=0;" parent="RALPsLNxrUUUZBOMkeJz-33" vertex="1">
          <mxGeometry x="448.5" y="190" width="201.5" height="160" as="geometry">
            <mxRectangle x="520" y="1140" width="50" height="40" as="alternateBounds" />
          </mxGeometry>
        </mxCell>
        <mxCell id="33FjBkdzOVDyzK0zfluO-6" value="&lt;font style=&quot;font-size: 12px&quot;&gt;&lt;font&gt;minecraft&lt;br&gt;&lt;/font&gt;&lt;i&gt;&lt;font color=&quot;#808080&quot;&gt;&lt;b&gt;play.snugg.ie&lt;/b&gt;&lt;/font&gt;&lt;/i&gt;&lt;br&gt;&lt;/font&gt;" style="fontColor=#000000;verticalAlign=middle;verticalLabelPosition=middle;labelPosition=right;align=left;html=1;outlineConnect=0;fillColor=#d6d6d6;strokeColor=#999;gradientColor=none;gradientDirection=north;strokeWidth=2;shape=stencil(fVHtbsMgDHwafi7K4AmmbPvVPoRDXUAtHzJO0739nLBqS6RO4sf57jD2ocxQPRRUuoda0LIy70rrG1CA8Sq0FsU38lX3rU4QsVHHkNASnFnYQ3a56fPGbz5U/6YW3P8CM5wzoaM8pdPGsfM93CGCW4asZFtzz1yqMuL7lEMwdy6wn8apItmcGBN3NkfRxpA83gWcsr0gvTDGcgXGKlSEykh/TetDq/RYTRre5FqQrl1Jrq14b1P8BPK1qeZdXPv4lpH/WdkMYniSjoBVbn+2Kt8=);labelBackgroundColor=none;aspect=fixed;spacingLeft=5;" parent="33FjBkdzOVDyzK0zfluO-3" vertex="1">
          <mxGeometry x="10" y="10" width="40" height="40" as="geometry" />
        </mxCell>
        <mxCell id="RALPsLNxrUUUZBOMkeJz-34" value="&lt;div&gt;&lt;br&gt;&lt;/div&gt;&lt;div&gt;Ri-Vier RVS2-06A&lt;/div&gt;QEMU/KVM&lt;br&gt;&lt;font&gt;&lt;font&gt;&lt;font&gt;&lt;b&gt;&lt;span style=&quot;font-size: 28px&quot;&gt;2&lt;/span&gt;TB&lt;/b&gt;&lt;/font&gt;&lt;/font&gt; &lt;i&gt;&lt;font style=&quot;font-size: 16px&quot; color=&quot;#888888&quot;&gt;usable&lt;/font&gt;&lt;/i&gt;&lt;/font&gt;&lt;br&gt;&lt;font color=&quot;#cc0000&quot;&gt;&lt;b&gt;10.0.1.6&lt;/b&gt;&lt;/font&gt;" style="shape=stencil(7VxXc+JKE/01fr2lgLasR0BCiEWDUUDhTYFFKAB3CQq//usZSWTvXoxtXPW5yipAaXpOd58+Mxrrie2uQ3c1fWKohZtOn1jhiWGEaZLAjpdlNv0tBjN8UOVoCo7At7A6h+H/+VHtyKod9A/qHx7vYcUnqg378d/+C9v9tfw9nf1ebhfByRln5zVnz1OXtLv+7Ve3D9yN+8S26/299W72xHTyNHliO567nv5oPTHdlz5inKLT8sx865fU3O2rlC8sd0M2YIOCY5WC2/mpv1OidqZ0+TJI/bncDzeexJWjRbh2Te73izZYBn01G82fd3AVO1z45TDlC6d4zkd6zA3Z6jx53imDfrJ2dGjHQjtP6lGuyW9HaVJ6TB4GkgH3dlaOFXQ9dsbLUXumdNs5wp9lG44FK6evLl80GfZ1sqArz1xpsnKYkIJ9pdLvUHLUenakSeqXrWebyVd+rwP3nc1cc8zLCR95UpIZuN0e3wtodYHYhA1MrkSSqo6M1VKzRFaTssxgDM5OB30j6SBNkwG4l/4gsdnxLGCSGO4I1omMcm5BV969RNnuqGV8ZZePHdMpX6J8IUto7VrtjY9tEKh5YA3WP7vo1+GK8JdqBYZTBlzATsAnamzoyU9XTHJEhWulh5KROZir9GCsG/EK99dPJ1HQ7bTAggww5upP1jVV0oai2/j30jGThdsHHCIF/6b8tLf1GQf8S/FySodBf7Cadmf5UGivlW5Wf8ZzWXJWnpTx8mKwsOczFo7VWzwflv+lfRnuESauGSwD/Jv4Ui1swN2BOPEgHjyzB/YkrZ+CiNvOhvXnT02eOWmy9uA6Pw3mP4UxM6w3OAZo54VjIkruk3iB+8b15yFWlPmFl2bQ19BboNRjBxuI341tqYVrzZaKhtuGflefK+hH6pr5Gs4pHEZeIsFe1xscez6Kiynp6bj1WASUGoHxMQLMqffl4g7vF0opr5VIKYYCIDm/iIAc6eJDbGiyHmMVSJNClpIYvNbVqKwMJLQzooE1MSHP2Z5hpqsQ0RNGpVZh0EtYrbckbIJ9ONRlYDqj6sOcKhShnRz7EgntbKCdRBRVn4MjhXKswcRLEwqzqccM/sW+Gac87aXqyksJs0F/MPvxxdBMtthWX+LXEIErj2ltGvvx9T496AOKOMokJ9EZJ/WZCdXw7x94F1udDVnM7WCp2QLuQzvgmsgxgsK2OkvXhEiR1CZn4ylEoFJFUwrnhIGFStfsbcdpTvvzW+sDohxRTYI0AT5Ldl4E9wZ0IUrKABACuzMnec4VofPLq/tUtdO0D+hYnZ3PJJSj3di2lGzh/rrHTgqbmfQhwjJXSiLo48qLZIigTmqVYqb0+J2TOqVjqV2vP8HRWDgWoj0cnYdzVt7CSfwFwt7d+eAV8NLOh/7A/ak6/8EzaprvPAY4QKLX3kKBWA6poN/+MSx4sNXfBqWyBaZZDEuILaG981lngeMFYmDndOkIqh+5q0zJ3DhKuiOS8+SeG4/thDYgUXvoKoo2w689Vq7yIJ0IHkNnHotWUFFvtWmFveVLzi9Fb2cWU8XpFfReRQaiDSJgkPjsZI25bn8vFi1tU90Fxbt5ed9/nwlDR+LZvZ1Xo53PIDchIvkCrt0FKfb6c1Wf68yVL6o18E5fTXC/6kp9A5/E89u5WbmjLsjZSMsg82PgxjZX1YZs57zKjXI+EtEPhxJbkz7EWLqkjElnrcQq7S96L1ovUb2UXyG2R03n/+/cOISqVmdX37YmJURt6MWDdWDJt2YYRI8qOpazqntV65UrGcPwqQMZFoiknXfLboPhaT9FicoOQl8KV3aFQ/EHXr7KOqDpGfBo6YDHgaUS4FoKWAhs4emg22S5s/YYPr7VLw371cwG0Ya6IwOzI1ED5J5Dk89sE3AgWSW+gmHDYA1Xjxke1DdfupaavClaDhxY8fb8Er3XkUm2r1Sa0pV6scf678/hB95t7LxWHc+qG3D7vOaPOufI94ZHiiafcU2YFF53Fil6KEzToDPqqeCVwb+o1xt7wkCEzMp1KnQMk9u5epAH/eX5qKWsNXOhgI2H8ZV9qpmLt6t2zIfDAz+u9ry/gBht2L7pUTVWjOPMTdWFZiWA5GAy7ScbTwgXZjoIRwa3ROzKmorIVOkOro64FxtcoTD7VXzRMOWe6RsmPGL7cXVOU2WSyRaiEkfjzk5XMKoAbQJjQAeqnUMNdlPQUHU+bCDCMJtm1bgZNNacbhgWX18aMWRgRCLppdI5N6uTV7nCacZakoq9lh/pIKZH+xCzUL8qVXVjfvmsGqvShAHlSWYGaga+li9n6u3dsvtqLUi2SvQ6L1/nHaheoDB8xrhUHta4yXKpUoC3qp+G/ypuA5QiohqBH49UJWR0LwIcah9dRbFhsHdXZI0ivcTuVVxW3it15qDuPoDD97zbWHot4s+qG3B7VY2HTKMP8Xc1cRYKsdCf7VlTG8DdsqVM/Xc++Xky31TNKxh5zZHUid46m9m4a0xd68aKJ+O6fz7pz6FndX+BHRxo3zSQhmLatY0g16RcHetBaUBmeMaEnpqhiUQuNqPBT51U59mxZuSOGfPA+Q0jHni/0ZQNohOTg4qPWYyfu7iGiJBRJhcDIy5AS+L5lzqqaRijgK2Lzn6mcWjW9mMWXCBNBTSryK8z+uZMfHW0GRO/dTFbEq38zZLfLPnNkn9jSToRjMhBZtrr+0a4NgyRhXFe6Zh0L7CS5SRSR05vWWhxK/8jSz5GSR6N9cXi6jxwOT61RL9nHjguh/V2OQ/86e3PAszFZNw+SR38Hc7zUuBcC0W2mcP43t8AcxUes0mqJ0GDncsYm4OX2lukEXYj51yfcT9c52FVbK52JFJTekXmNS6Oo9DH9rI92rYGJ+16ZoLV8to14VqMxfxVDHPyxGBvp0KdqnjxnqcpnFJk9Rbjp19Y9ePalQBz48iGe3FY3Zc208NP0RaAJ7TF/3aOsBpa+1FGNowMMgNLztGvPjM4XEf8MvnXYwgvbTBTkNH+6fHIttq4XuaB2StO2jUr3AFruJbM6188D8BPX8jcpR4T/37j+CYcKdTg+B2L92OonzwhLNHpc9z8nieEI11Z1xs+xmA+wSN2xwQU4Tuct8VzmT6DQsJRBd1w0gErjT5wdrdFH/FW4yvoS1Zv8fF12C+Jm/Jk9F5xnHxxHPyX4VkC35qEfnrSboV7CljDtbiSXj7lBCauZ7JFrvLwN5JvQ3IkXH1i/Y3iG1EUv9XOm9XOrFm7kY804uFvHN+mGnOcvd+V+k7VqI+/c/o9Y/Fbfd8Vj3sc58cYklVMxxjeEYs+HKu2K6N5qpn9PdNbxdnatvyD1vXt+4+Kh/Y/fzD+gMNZbYzOVvZpd6wtLNvreru+trBhRPbRFhDcH2vBwzNBifxHtF+iosWNhGaNpbgd6bP89JlQK1Oi0ypJ9unxX7IDzplnm/oT27aF6soOuxSw8SxXtNvtJJFR+eus+ohbRfBbp9lr3JG9Io26WQH2rpXIoK+si2WHUdxStKYaYtzij8OtbNM1buRZ2ttxEwuI8xM7Fa2VoXJ2aucdGafoBjUU8BgzK5BuXMu60m+irJpbx6iQCDysYhtG7eJs1Ir35aO/WQbXVUjBZ4UmrQjKeqi3tzCuY2/jaeLlYj/jiKMOr7w+WgsO7bCjUzvpOzI1R/oYIk4Ee2QaaRfepLA3UTQ7ytZHcScSsBft1kFJjIvHVNMx9hIzahTFvIn3T+fSc+/kTfQ8GhOoc1skfJFIyb+Oh+Sv46HoC3moeKCHWKhHHBLiI4ZrFx+nR0RcLSAKxi0y0rzNztaoqf/zFnWG12dXhnPccGSfjW5s0Ejy2Sgd7xO5v9iFryMVFH9WVVbJ97jdpkdOcdOhogpK8Vg9gkocZWNur0e0i+h/Zz0yAzRF6LnP3cYZPiA+4450EwWc8cioa5Go+xJ6BMYwX0SPzPIvokfOvfPAaneKyWP1yFmkPFKPnHnokXrkzEMP1SNnHnqkHskVwTiuDhil7OPqqggVBTTKvAXMa988m9Wmj+vDJQN+9iyJmKFPViWoaNAb34deTjRd+dDqeh57H69MdAMQlUEXG8WNM9rY0wddh2dKhPGDdR2oe/qE0y7R+zwW0Y0vok7EHJ3UHPuBmu3CQ/ojFeSlNY+sgZfWfClPPVTrX1rzpTz14JxSOLCG2nMxZj3hw2pGDpWf1IyRIN84mhXL0deaQ8mVMj7RegQ7/cOwK5VIabC78cnEGXZfYh7lIvKucMR7zt4huDcgCjp3VqDbZqEqT+91KdHK1AO0cuRag8iTjFvXCkW1YiVPQW22WtcE2HP4/VjHG1k/FO1XWZ7974lBg72gKjPIYrHxqIRWforWjnbj2k4JVchWLUVNXJ5bBBt+R0WxX5Vz9n+DEFtruC6vLKs8ZzNJYTN5cutKIJud1cgQ+5oVFxcojXSshuT9iqszz7FKgT2ngF028wGeY/+AR45KBXNWCXgwaP7+eIz+FCG6X5KcL7IcevM+EUId9bwFbMiMBIVWShu8ILIo8svPRWN8iNZoRnIeuKGAKkChSKEgMqhb7an/y7X6Hz34Vr2jL69eole/wq84+VW/v49pnb7gr8VVP5+Y3p9e2Md24YRX3u0HX8jh6g2D5Mj/AA==);html=1;labelPosition=center;align=right;spacingLeft=0;dashed=0;shadow=0;fillColor=#ffffff;verticalLabelPosition=top;verticalAlign=bottom;spacingRight=15;" parent="1" vertex="1">
          <mxGeometry x="2120" y="790" width="165" height="30" as="geometry" />
        </mxCell>
        <mxCell id="kbgs-3CpDgGKMk2La2K0-16" value="What do the wires mean?" style="whiteSpace=wrap;html=1;rounded=1;arcSize=2;shadow=0;glass=0;dashed=1;comic=0;strokeColor=#666666;strokeWidth=2;fillColor=#f5f5f5;fontSize=14;fontColor=#333333;align=left;labelPosition=center;verticalLabelPosition=top;verticalAlign=bottom;fontStyle=3;container=1;collapsible=0;recursiveResize=0;" vertex="1" parent="1">
          <mxGeometry x="2480" y="460" width="420" height="110" as="geometry" />
        </mxCell>
        <mxCell id="kbgs-3CpDgGKMk2La2K0-17" value="ISP / Trunk" style="edgeStyle=orthogonalEdgeStyle;rounded=0;orthogonalLoop=1;jettySize=auto;html=1;endArrow=none;endFill=0;strokeColor=#000000;strokeWidth=3;fontColor=#000000;labelPosition=right;verticalLabelPosition=middle;align=left;verticalAlign=middle;fontSize=12;labelBackgroundColor=none;spacingLeft=10;" edge="1" parent="kbgs-3CpDgGKMk2La2K0-16">
          <mxGeometry x="1" relative="1" as="geometry">
            <mxPoint x="10" y="11" as="sourcePoint" />
            <mxPoint x="40" y="11" as="targetPoint" />
            <mxPoint as="offset" />
          </mxGeometry>
        </mxCell>
        <mxCell id="kbgs-3CpDgGKMk2La2K0-18" value="&lt;b&gt;VLAN 5&lt;/b&gt; - Home - 10.0.0.0&lt;b&gt;/24&lt;/b&gt;" style="edgeStyle=orthogonalEdgeStyle;rounded=0;orthogonalLoop=1;jettySize=auto;html=1;endArrow=none;endFill=0;strokeColor=#078DDB;strokeWidth=3;fontColor=#000000;labelPosition=right;verticalLabelPosition=middle;align=left;verticalAlign=middle;fontSize=12;labelBackgroundColor=none;spacingLeft=10;" edge="1" parent="kbgs-3CpDgGKMk2La2K0-16">
          <mxGeometry x="1" relative="1" as="geometry">
            <mxPoint x="10" y="26" as="sourcePoint" />
            <mxPoint x="40" y="26" as="targetPoint" />
            <mxPoint as="offset" />
          </mxGeometry>
        </mxCell>
        <mxCell id="kbgs-3CpDgGKMk2La2K0-19" value="&lt;b&gt;VLAN 10&lt;/b&gt;&amp;nbsp;- Server Cabinet - 10.0.1.0&lt;b&gt;/24&lt;/b&gt;" style="edgeStyle=orthogonalEdgeStyle;rounded=0;orthogonalLoop=1;jettySize=auto;html=1;endArrow=none;endFill=0;strokeColor=#CC0000;strokeWidth=3;fontColor=#000000;labelPosition=right;verticalLabelPosition=middle;align=left;verticalAlign=middle;fontSize=12;labelBackgroundColor=none;spacingLeft=10;" edge="1" parent="kbgs-3CpDgGKMk2La2K0-16">
          <mxGeometry x="1" relative="1" as="geometry">
            <mxPoint x="10" y="41" as="sourcePoint" />
            <mxPoint x="40" y="41" as="targetPoint" />
            <mxPoint as="offset" />
          </mxGeometry>
        </mxCell>
        <mxCell id="kbgs-3CpDgGKMk2La2K0-28" value="Ethernet" style="edgeStyle=orthogonalEdgeStyle;rounded=0;orthogonalLoop=1;jettySize=auto;html=1;endArrow=none;endFill=0;strokeColor=#000000;strokeWidth=2;fontColor=#000000;labelPosition=right;verticalLabelPosition=middle;align=left;verticalAlign=middle;fontSize=12;labelBackgroundColor=none;spacingLeft=10;" edge="1" parent="kbgs-3CpDgGKMk2La2K0-16">
          <mxGeometry x="1" relative="1" as="geometry">
            <mxPoint x="290.0028571428571" y="11" as="sourcePoint" />
            <mxPoint x="319.86" y="11" as="targetPoint" />
            <mxPoint as="offset" />
          </mxGeometry>
        </mxCell>
        <mxCell id="kbgs-3CpDgGKMk2La2K0-29" value="Wireless&lt;br&gt;" style="edgeStyle=orthogonalEdgeStyle;rounded=0;orthogonalLoop=1;jettySize=auto;html=1;endArrow=none;endFill=0;strokeColor=#000000;strokeWidth=2;fontColor=#000000;labelPosition=right;verticalLabelPosition=middle;align=left;verticalAlign=middle;fontSize=12;labelBackgroundColor=none;dashed=1;spacingLeft=10;" edge="1" parent="kbgs-3CpDgGKMk2La2K0-16">
          <mxGeometry x="1" relative="1" as="geometry">
            <mxPoint x="290.0028571428571" y="26" as="sourcePoint" />
            <mxPoint x="319.86" y="25.90476190476187" as="targetPoint" />
            <mxPoint as="offset" />
          </mxGeometry>
        </mxCell>
        <mxCell id="kbgs-3CpDgGKMk2La2K0-30" value="10G Fiber" style="edgeStyle=orthogonalEdgeStyle;rounded=0;orthogonalLoop=1;jettySize=auto;html=1;endArrow=none;endFill=0;strokeColor=#000000;strokeWidth=4;fontColor=#000000;labelPosition=right;verticalLabelPosition=middle;align=left;verticalAlign=middle;fontSize=12;labelBackgroundColor=none;spacingLeft=10;" edge="1" parent="kbgs-3CpDgGKMk2La2K0-16">
          <mxGeometry x="1" relative="1" as="geometry">
            <mxPoint x="290" y="41" as="sourcePoint" />
            <mxPoint x="320" y="41" as="targetPoint" />
            <mxPoint as="offset" />
          </mxGeometry>
        </mxCell>
        <mxCell id="kbgs-3CpDgGKMk2La2K0-31" value="Tunnel" style="edgeStyle=orthogonalEdgeStyle;rounded=0;orthogonalLoop=1;jettySize=auto;html=1;endArrow=none;endFill=0;strokeColor=#000000;strokeWidth=5;fontColor=#000000;labelPosition=right;verticalLabelPosition=middle;align=left;verticalAlign=middle;fontSize=12;labelBackgroundColor=none;dashed=1;dashPattern=1 1;spacingLeft=10;dashPattern=2 1;" edge="1" parent="kbgs-3CpDgGKMk2La2K0-16">
          <mxGeometry x="1" relative="1" as="geometry">
            <mxPoint x="290" y="56" as="sourcePoint" />
            <mxPoint x="320" y="56.03910614525148" as="targetPoint" />
            <mxPoint as="offset" />
          </mxGeometry>
        </mxCell>
        <mxCell id="kbgs-3CpDgGKMk2La2K0-32" value="Proxy" style="edgeStyle=orthogonalEdgeStyle;rounded=0;orthogonalLoop=1;jettySize=auto;html=1;endArrow=open;endFill=0;strokeColor=#000000;strokeWidth=2;fontColor=#000000;labelPosition=right;verticalLabelPosition=middle;align=left;verticalAlign=middle;fontSize=12;labelBackgroundColor=none;spacingLeft=10;" edge="1" parent="kbgs-3CpDgGKMk2La2K0-16">
          <mxGeometry x="1" relative="1" as="geometry">
            <mxPoint x="290" y="71" as="sourcePoint" />
            <mxPoint x="320" y="71" as="targetPoint" />
            <mxPoint as="offset" />
          </mxGeometry>
        </mxCell>
        <mxCell id="kbgs-3CpDgGKMk2La2K0-33" value="Testnet" style="edgeStyle=orthogonalEdgeStyle;rounded=0;orthogonalLoop=1;jettySize=auto;html=1;endArrow=none;endFill=0;strokeColor=#000000;strokeWidth=3;fontColor=#000000;labelPosition=right;verticalLabelPosition=middle;align=left;verticalAlign=middle;fontSize=12;labelBackgroundColor=none;spacingLeft=10;shape=link;" edge="1" parent="kbgs-3CpDgGKMk2La2K0-16">
          <mxGeometry x="1" relative="1" as="geometry">
            <mxPoint x="290" y="87" as="sourcePoint" />
            <mxPoint x="320" y="87" as="targetPoint" />
            <mxPoint as="offset" />
          </mxGeometry>
        </mxCell>
        <mxCell id="RALPsLNxrUUUZBOMkeJz-3" value="&lt;font size=&quot;1&quot;&gt;&lt;i&gt;&lt;b style=&quot;font-size: 15px&quot;&gt;Interconnect Node Alpha&lt;/b&gt;&lt;/i&gt;&lt;/font&gt;&lt;br&gt;Unifi Flex Mini Switch&lt;font&gt;&lt;br&gt;&lt;/font&gt;&lt;font style=&quot;font-weight: bold&quot; color=&quot;#cc0000&quot;&gt;&lt;font color=&quot;#66B2FF&quot;&gt;10.0.0.1/24&lt;/font&gt; &lt;font color=&quot;#000000&quot;&gt;/&lt;/font&gt; 10.0.1.1/24&lt;/font&gt;" style="shape=stencil(xZbdboMgFMefhlvCp9rLxXUPsKvdNoq1mSuNten29kOoJkgFt1hKTJCDxx/n6P8AoPm53p0EIOi4+xKAvgJCtuVevMtLJ1pl/lAG1dVmijAzvJohxqgf0y1AL8raXzSvZCv2rbwcS2timD53rfwUhWxk/3rT65cBQpFu+v7trnN1aJr7rkw3j2srik7dfRsPA0E/1siOahr0/IpMSHNPmNnroezqnqF7Q4WE/yvWSjePqy/HQWc7URlMuZUrDLmdrWww3MLCm+DKFqLJuuw+ocvIGNvYdPhSI5jZWJitwqUU8gA5eQiYk6dgUxQtXo8KfSL0KSlYcuYVXOi2WIR4LBVDoqj9O/KpDggMKeEvSnSrQFw+S58bf8KfG3/GYsc//+sG9+hpKZ2mjt00PC6eTBa/gXSdauqoJhqaOYKJhk4crURDZ45MIqIfvWPTXFmcs622miO0NvwC);html=1;labelPosition=right;align=left;spacingLeft=15;dashed=0;shadow=0;fillColor=#ffffff;" parent="1" vertex="1">
          <mxGeometry x="2091.5" y="589.5" width="110" height="24" as="geometry" />
        </mxCell>
        <mxCell id="kbgs-3CpDgGKMk2La2K0-35" value="&lt;font size=&quot;1&quot;&gt;&lt;i&gt;&lt;b style=&quot;font-size: 15px&quot;&gt;Unimatrix&lt;/b&gt;&lt;/i&gt;&lt;/font&gt;&lt;br&gt;Unifi USG-4 Pro Router&lt;font&gt;&lt;br&gt;&lt;/font&gt;&lt;font style=&quot;font-weight: bold&quot; color=&quot;#cc0000&quot;&gt;&lt;font color=&quot;#66B2FF&quot;&gt;10.0.0.1/24&lt;/font&gt; &lt;font color=&quot;#000000&quot;&gt;/&lt;/font&gt; 10.0.1.1/24&lt;/font&gt;" style="shape=stencil(xZbdboMgFMefhlvCp9rLxXUPsKvdNoq1mSuNten29kOoJkgFt1hKTJCDxx/n6P8AoPm53p0EIOi4+xKAvgJCtuVevMtLJ1pl/lAG1dVmijAzvJohxqgf0y1AL8raXzSvZCv2rbwcS2timD53rfwUhWxk/3rT65cBQpFu+v7trnN1aJr7rkw3j2srik7dfRsPA0E/1siOahr0/IpMSHNPmNnroezqnqF7Q4WE/yvWSjePqy/HQWc7URlMuZUrDLmdrWww3MLCm+DKFqLJuuw+ocvIGNvYdPhSI5jZWJitwqUU8gA5eQiYk6dgUxQtXo8KfSL0KSlYcuYVXOi2WIR4LBVDoqj9O/KpDggMKeEvSnSrQFw+S58bf8KfG3/GYsc//+sG9+hpKZ2mjt00PC6eTBa/gXSdauqoJhqaOYKJhk4crURDZ45MIqIfvWPTXFmcs622miO0NvwC);html=1;labelPosition=right;align=left;spacingLeft=15;dashed=0;shadow=0;fillColor=#ffffff;" vertex="1" parent="1">
          <mxGeometry x="2091.5" y="470" width="110" height="24" as="geometry" />
        </mxCell>
      </root>
    </mxGraphModel>
  </diagram>
  <diagram id="8E8_k9Vg1NP8HSipa3jA" name="Physical topology">
    <mxGraphModel dx="546" dy="238" grid="1" gridSize="10" guides="1" tooltips="1" connect="1" arrows="1" fold="1" page="0" pageScale="1" pageWidth="1100" pageHeight="1700" math="0" shadow="0">
      <root>
        <mxCell id="KMFgPlAvmUF1ZaRBxyUd-0" />
        <mxCell id="KMFgPlAvmUF1ZaRBxyUd-1" parent="KMFgPlAvmUF1ZaRBxyUd-0" />
        <mxCell id="pwVUqLAdtSQulkg1Af5k-0" value="" style="html=1;verticalLabelPosition=middle;labelBackgroundColor=none;verticalAlign=top;outlineConnect=0;shadow=0;dashed=0;shape=mxgraph.rackGeneral.container;fillColor2=#222222;container=0;collapsible=0;childLayout=rack;allowGaps=1;marginLeft=33;marginRight=9;marginTop=21;marginBottom=22;textColor=#666666;numDisp=ascend;align=right;labelPosition=center;spacing=-1;spacingLeft=23;spacingRight=16;fillColor=#ffffff;strokeWidth=1;fontColor=#FFC96B;fontFamily=Ubuntu;direction=east;metaEdit=1;" parent="KMFgPlAvmUF1ZaRBxyUd-1" vertex="1">
          <mxGeometry x="490" y="650" width="260" height="300" as="geometry" />
        </mxCell>
        <mxCell id="Yr37IA-d67ns3u59aPi8-0" value="Basic PDU" style="shape=stencil(vZRdC8IgFIZ/jbfDeeY+LmPVddAvGMu1keVwi9W/z+lG2L6oKBE8vofj+xxBEcRVnpQMEXxJzgzBGhGyEw2TStnXsijVXoW5ybieExqh6QQfO1GrwAbhldLbCXEmJDtKcb0crESfrmopTiwVXLQ2ZtXHIQJYDx1vR4uzgvPxUqLHTKlkaa2im6kwJvhu7V77GrY+TWXaep87ihZatrldL7TIoSft2MHiDhag38cNgh/igkM/BGacF2XFnsZALF/q+NQ27qy+t56+K/Aonb2rIXX0L+qPXiHEShk8b62aj0QLDw==);html=1;labelPosition=right;align=left;spacingLeft=22;dashed=0;shadow=0;fillColor=#ffffff;" parent="KMFgPlAvmUF1ZaRBxyUd-1" vertex="1">
          <mxGeometry x="523" y="671" width="218" height="20" as="geometry" />
        </mxCell>
        <mxCell id="sjXUW3FMl3AlOk6j_Q3A-1" value="Unifi USG-4 Pro" style="shape=stencil(vZRdC8IgFIZ/jbfDeeY+LmPVddAvGMu1keVwi9W/z+lG2L6oKBE8vofj+xxBEcRVnpQMEXxJzgzBGhGyEw2TStnXsijVXoW5ybieExqh6QQfO1GrwAbhldLbCXEmJDtKcb0crESfrmopTiwVXLQ2ZtXHIQJYDx1vR4uzgvPxUqLHTKlkaa2im6kwJvhu7V77GrY+TWXaep87ihZatrldL7TIoSft2MHiDhag38cNgh/igkM/BGacF2XFnsZALF/q+NQ27qy+t56+K/Aonb2rIXX0L+qPXiHEShk8b62aj0QLDw==);html=1;labelPosition=right;align=left;spacingLeft=22;dashed=0;shadow=0;fillColor=#ffffff;" vertex="1" parent="KMFgPlAvmUF1ZaRBxyUd-1">
          <mxGeometry x="523" y="691" width="218" height="20" as="geometry" />
        </mxCell>
        <mxCell id="GnsQZZoqbt53YHRg8xz4-0" value="Hug Server (Ri-Vier RVS2-06A)" style="shape=image;verticalLabelPosition=middle;verticalAlign=middle;imageAspect=0;image=data:image/svg+xml,PHN2ZyB4bWxucz0iaHR0cDovL3d3dy53My5vcmcvMjAwMC9zdmciIHhtbG5zOnhsaW5rPSJodHRwOi8vd3d3LnczLm9yZy8xOTk5L3hsaW5rIiBzdHlsZT0iaXNvbGF0aW9uOmlzb2xhdGUiIHZpZXdCb3g9IjAgMCAxNjAgMzAiIHdpZHRoPSIxNjBwdCIgaGVpZ2h0PSIzMHB0Ij48ZGVmcz48Y2xpcFBhdGggaWQ9Il9jbGlwUGF0aF9Fd1RnN3l3dW5zNGRROUpoSXE3SGwwU2U5YmJHUlBNSSI+PHJlY3Qgd2lkdGg9IjE2MCIgaGVpZ2h0PSIzMCIvPjwvY2xpcFBhdGg+PC9kZWZzPjxnIGNsaXAtcGF0aD0idXJsKCNfY2xpcFBhdGhfRXdUZzd5d3VuczRkUTlKaElxN0hsMFNlOWJiR1JQTUkpIj48cmVjdCB4PSIwIiB5PSIwIiB3aWR0aD0iMTYwIiBoZWlnaHQ9IjMwIiB0cmFuc2Zvcm09Im1hdHJpeCgxLDAsMCwxLDAsMCkiIGZpbGw9InJnYig3MCw3MCw3MCkiLz48cmVjdCB4PSIwIiB5PSIwIiB3aWR0aD0iMTIiIGhlaWdodD0iMzAiIHRyYW5zZm9ybT0ibWF0cml4KDEsMCwwLDEsMCwwKSIgZmlsbD0icmdiKDQ2LDQ2LDQ2KSIvPjxyZWN0IHg9IjAiIHk9IjAiIHdpZHRoPSIxMiIgaGVpZ2h0PSIzMCIgdHJhbnNmb3JtPSJtYXRyaXgoMSwwLDAsMSwwLDApIiBmaWxsPSJyZ2IoNDYsNDYsNDYpIi8+PHJlY3QgeD0iMTQ4IiB5PSIwIiB3aWR0aD0iMTIiIGhlaWdodD0iMzAiIHRyYW5zZm9ybT0ibWF0cml4KDEsMCwwLDEsMCwwKSIgZmlsbD0icmdiKDQ2LDQ2LDQ2KSIvPjxyZWN0IHg9IjMiIHk9IjQiIHdpZHRoPSI2IiBoZWlnaHQ9IjIyIiB0cmFuc2Zvcm09Im1hdHJpeCgxLDAsMCwxLDAsMCkiIGZpbGw9InJnYigyMzIsMjMyLDIzMikiLz48cmVjdCB4PSIxNTEiIHk9IjQiIHdpZHRoPSI2IiBoZWlnaHQ9IjIyIiB0cmFuc2Zvcm09Im1hdHJpeCgxLDAsMCwxLDAsMCkiIGZpbGw9InJnYigyMzIsMjMyLDIzMikiLz48ZGVmcz48ZmlsdGVyIGlkPSJCS0wzdGNvUjJXVWNGR3FUWmphN1V2R0phdFl3SFowdCIgeD0iLTIwMCUiIHk9Ii0yMDAlIiB3aWR0aD0iNDAwJSIgaGVpZ2h0PSI0MDAlIiBmaWx0ZXJVbml0cz0ib2JqZWN0Qm91bmRpbmdCb3giIGNvbG9yLWludGVycG9sYXRpb24tZmlsdGVycz0ic1JHQiI+PGZlT2Zmc2V0IHhtbG5zPSJodHRwOi8vd3d3LnczLm9yZy8yMDAwL3N2ZyIgaW49IlNvdXJjZUdyYXBoaWMiIGR4PSIwIiBkeT0iMSIvPjxmZUdhdXNzaWFuQmx1ciB4bWxucz0iaHR0cDovL3d3dy53My5vcmcvMjAwMC9zdmciIHN0ZERldmlhdGlvbj0iMCIgcmVzdWx0PSJwZl8xMDBfb2Zmc2V0Qmx1ciIvPjxmZUNvbXBvc2l0ZSB4bWxucz0iaHR0cDovL3d3dy53My5vcmcvMjAwMC9zdmciIGluPSJTb3VyY2VHcmFwaGljIiBpbjI9InBmXzEwMF9vZmZzZXRCbHVyIiByZXN1bHQ9InBmXzEwMF9pbnZlcnNlIiBvcGVyYXRvcj0ib3V0Ii8+PGZlRmxvb2QgeG1sbnM9Imh0dHA6Ly93d3cudzMub3JnLzIwMDAvc3ZnIiBmbG9vZC1jb2xvcj0iI0I5QjlCOSIgZmxvb2Qtb3BhY2l0eT0iMSIgcmVzdWx0PSJwZl8xMDBfY29sb3IiLz48ZmVDb21wb3NpdGUgeG1sbnM9Imh0dHA6Ly93d3cudzMub3JnLzIwMDAvc3ZnIiBpbj0icGZfMTAwX2NvbG9yIiBpbjI9InBmXzEwMF9pbnZlcnNlIiBvcGVyYXRvcj0iaW4iIHJlc3VsdD0icGZfMTAwX3NoYWRvdyIvPjxmZUNvbXBvc2l0ZSB4bWxucz0iaHR0cDovL3d3dy53My5vcmcvMjAwMC9zdmciIGluPSJwZl8xMDBfc2hhZG93IiBpbjI9IlNvdXJjZUdyYXBoaWMiIG9wZXJhdG9yPSJvdmVyIi8+PC9maWx0ZXI+PC9kZWZzPjxnIGZpbHRlcj0idXJsKCNCS0wzdGNvUjJXVWNGR3FUWmphN1V2R0phdFl3SFowdCkiPjxyZWN0IHg9IjMiIHk9IjQiIHdpZHRoPSI2IiBoZWlnaHQ9IjMiIHRyYW5zZm9ybT0ibWF0cml4KDEsMCwwLDEsMCwwKSIgZmlsbD0icmdiKDIwOSwyMDksMjA5KSIvPjwvZz48ZGVmcz48ZmlsdGVyIGlkPSIxOEN6Z0E4VHBhYmo0UVBsMkR1cnFPSFlRbm9pN3F0eiIgeD0iLTIwMCUiIHk9Ii0yMDAlIiB3aWR0aD0iNDAwJSIgaGVpZ2h0PSI0MDAlIiBmaWx0ZXJVbml0cz0ib2JqZWN0Qm91bmRpbmdCb3giIGNvbG9yLWludGVycG9sYXRpb24tZmlsdGVycz0ic1JHQiI+PGZlT2Zmc2V0IHhtbG5zPSJodHRwOi8vd3d3LnczLm9yZy8yMDAwL3N2ZyIgaW49IlNvdXJjZUdyYXBoaWMiIGR4PSIwIiBkeT0iLTEiLz48ZmVHYXVzc2lhbkJsdXIgeG1sbnM9Imh0dHA6Ly93d3cudzMub3JnLzIwMDAvc3ZnIiBzdGREZXZpYXRpb249IjAiIHJlc3VsdD0icGZfMTAwX29mZnNldEJsdXIiLz48ZmVDb21wb3NpdGUgeG1sbnM9Imh0dHA6Ly93d3cudzMub3JnLzIwMDAvc3ZnIiBpbj0iU291cmNlR3JhcGhpYyIgaW4yPSJwZl8xMDBfb2Zmc2V0Qmx1ciIgcmVzdWx0PSJwZl8xMDBfaW52ZXJzZSIgb3BlcmF0b3I9Im91dCIvPjxmZUZsb29kIHhtbG5zPSJodHRwOi8vd3d3LnczLm9yZy8yMDAwL3N2ZyIgZmxvb2QtY29sb3I9IiNCOUI5QjkiIGZsb29kLW9wYWNpdHk9IjEiIHJlc3VsdD0icGZfMTAwX2NvbG9yIi8+PGZlQ29tcG9zaXRlIHhtbG5zPSJodHRwOi8vd3d3LnczLm9yZy8yMDAwL3N2ZyIgaW49InBmXzEwMF9jb2xvciIgaW4yPSJwZl8xMDBfaW52ZXJzZSIgb3BlcmF0b3I9ImluIiByZXN1bHQ9InBmXzEwMF9zaGFkb3ciLz48ZmVDb21wb3NpdGUgeG1sbnM9Imh0dHA6Ly93d3cudzMub3JnLzIwMDAvc3ZnIiBpbj0icGZfMTAwX3NoYWRvdyIgaW4yPSJTb3VyY2VHcmFwaGljIiBvcGVyYXRvcj0ib3ZlciIvPjwvZmlsdGVyPjwvZGVmcz48ZyBmaWx0ZXI9InVybCgjMThDemdBOFRwYWJqNFFQbDJEdXJxT0hZUW5vaTdxdHopIj48cmVjdCB4PSIzIiB5PSIyMyIgd2lkdGg9IjYiIGhlaWdodD0iMyIgdHJhbnNmb3JtPSJtYXRyaXgoMSwwLDAsMSwwLDApIiBmaWxsPSJyZ2IoMjA5LDIwOSwyMDkpIi8+PC9nPjxkZWZzPjxmaWx0ZXIgaWQ9IkkwamRnSXlicGJVeHltbDhnWmJhOU5oN3pXeENWR1ByIiB4PSItMjAwJSIgeT0iLTIwMCUiIHdpZHRoPSI0MDAlIiBoZWlnaHQ9IjQwMCUiIGZpbHRlclVuaXRzPSJvYmplY3RCb3VuZGluZ0JveCIgY29sb3ItaW50ZXJwb2xhdGlvbi1maWx0ZXJzPSJzUkdCIj48ZmVPZmZzZXQgeG1sbnM9Imh0dHA6Ly93d3cudzMub3JnLzIwMDAvc3ZnIiBpbj0iU291cmNlR3JhcGhpYyIgZHg9IjAiIGR5PSIxIi8+PGZlR2F1c3NpYW5CbHVyIHhtbG5zPSJodHRwOi8vd3d3LnczLm9yZy8yMDAwL3N2ZyIgc3RkRGV2aWF0aW9uPSIwIiByZXN1bHQ9InBmXzEwMF9vZmZzZXRCbHVyIi8+PGZlQ29tcG9zaXRlIHhtbG5zPSJodHRwOi8vd3d3LnczLm9yZy8yMDAwL3N2ZyIgaW49IlNvdXJjZUdyYXBoaWMiIGluMj0icGZfMTAwX29mZnNldEJsdXIiIHJlc3VsdD0icGZfMTAwX2ludmVyc2UiIG9wZXJhdG9yPSJvdXQiLz48ZmVGbG9vZCB4bWxucz0iaHR0cDovL3d3dy53My5vcmcvMjAwMC9zdmciIGZsb29kLWNvbG9yPSIjQjlCOUI5IiBmbG9vZC1vcGFjaXR5PSIxIiByZXN1bHQ9InBmXzEwMF9jb2xvciIvPjxmZUNvbXBvc2l0ZSB4bWxucz0iaHR0cDovL3d3dy53My5vcmcvMjAwMC9zdmciIGluPSJwZl8xMDBfY29sb3IiIGluMj0icGZfMTAwX2ludmVyc2UiIG9wZXJhdG9yPSJpbiIgcmVzdWx0PSJwZl8xMDBfc2hhZG93Ii8+PGZlQ29tcG9zaXRlIHhtbG5zPSJodHRwOi8vd3d3LnczLm9yZy8yMDAwL3N2ZyIgaW49InBmXzEwMF9zaGFkb3ciIGluMj0iU291cmNlR3JhcGhpYyIgb3BlcmF0b3I9Im92ZXIiLz48L2ZpbHRlcj48L2RlZnM+PGcgZmlsdGVyPSJ1cmwoI0kwamRnSXlicGJVeHltbDhnWmJhOU5oN3pXeENWR1ByKSI+PHJlY3QgeD0iMTUxIiB5PSI0IiB3aWR0aD0iNiIgaGVpZ2h0PSIzIiB0cmFuc2Zvcm09Im1hdHJpeCgxLDAsMCwxLDAsMCkiIGZpbGw9InJnYigyMDksMjA5LDIwOSkiLz48L2c+PGRlZnM+PGZpbHRlciBpZD0iWUNSNk1aYUdxSGxRQTdzUnNlbUV1eWhWNE5kWjJKTjEiIHg9Ii0yMDAlIiB5PSItMjAwJSIgd2lkdGg9IjQwMCUiIGhlaWdodD0iNDAwJSIgZmlsdGVyVW5pdHM9Im9iamVjdEJvdW5kaW5nQm94IiBjb2xvci1pbnRlcnBvbGF0aW9uLWZpbHRlcnM9InNSR0IiPjxmZU9mZnNldCB4bWxucz0iaHR0cDovL3d3dy53My5vcmcvMjAwMC9zdmciIGluPSJTb3VyY2VHcmFwaGljIiBkeD0iMCIgZHk9Ii0xIi8+PGZlR2F1c3NpYW5CbHVyIHhtbG5zPSJodHRwOi8vd3d3LnczLm9yZy8yMDAwL3N2ZyIgc3RkRGV2aWF0aW9uPSIwIiByZXN1bHQ9InBmXzEwMF9vZmZzZXRCbHVyIi8+PGZlQ29tcG9zaXRlIHhtbG5zPSJodHRwOi8vd3d3LnczLm9yZy8yMDAwL3N2ZyIgaW49IlNvdXJjZUdyYXBoaWMiIGluMj0icGZfMTAwX29mZnNldEJsdXIiIHJlc3VsdD0icGZfMTAwX2ludmVyc2UiIG9wZXJhdG9yPSJvdXQiLz48ZmVGbG9vZCB4bWxucz0iaHR0cDovL3d3dy53My5vcmcvMjAwMC9zdmciIGZsb29kLWNvbG9yPSIjQjlCOUI5IiBmbG9vZC1vcGFjaXR5PSIxIiByZXN1bHQ9InBmXzEwMF9jb2xvciIvPjxmZUNvbXBvc2l0ZSB4bWxucz0iaHR0cDovL3d3dy53My5vcmcvMjAwMC9zdmciIGluPSJwZl8xMDBfY29sb3IiIGluMj0icGZfMTAwX2ludmVyc2UiIG9wZXJhdG9yPSJpbiIgcmVzdWx0PSJwZl8xMDBfc2hhZG93Ii8+PGZlQ29tcG9zaXRlIHhtbG5zPSJodHRwOi8vd3d3LnczLm9yZy8yMDAwL3N2ZyIgaW49InBmXzEwMF9zaGFkb3ciIGluMj0iU291cmNlR3JhcGhpYyIgb3BlcmF0b3I9Im92ZXIiLz48L2ZpbHRlcj48L2RlZnM+PGcgZmlsdGVyPSJ1cmwoI1lDUjZNWmFHcUhsUUE3c1JzZW1FdXloVjROZFoySk4xKSI+PHJlY3QgeD0iMTUxIiB5PSIyMyIgd2lkdGg9IjYiIGhlaWdodD0iMyIgdHJhbnNmb3JtPSJtYXRyaXgoMSwwLDAsMSwwLDApIiBmaWxsPSJyZ2IoMjA5LDIwOSwyMDkpIi8+PC9nPjxyZWN0IHg9IjEyIiB5PSIwIiB3aWR0aD0iMzQiIGhlaWdodD0iMTAiIHRyYW5zZm9ybT0ibWF0cml4KDEsMCwwLDEsMCwwKSIgZmlsbD0icmdiKDkzLDkzLDkzKSIvPjxyZWN0IHg9IjEyIiB5PSIwIiB3aWR0aD0iMzQiIGhlaWdodD0iMTAiIHRyYW5zZm9ybT0ibWF0cml4KDEsMCwwLDEsMCwwKSIgZmlsbD0icmdiKDkzLDkzLDkzKSIgdmVjdG9yLWVmZmVjdD0ibm9uLXNjYWxpbmctc3Ryb2tlIiBzdHJva2Utd2lkdGg9IjAuNSIgc3Ryb2tlPSJyZ2IoNDYsNDYsNDYpIiBzdHJva2UtbGluZWpvaW49Im1pdGVyIiBzdHJva2UtbGluZWNhcD0ic3F1YXJlIiBzdHJva2UtbWl0ZXJsaW1pdD0iMiIvPjxyZWN0IHg9IjEyIiB5PSIxMCIgd2lkdGg9IjM0IiBoZWlnaHQ9IjEwIiB0cmFuc2Zvcm09Im1hdHJpeCgxLDAsMCwxLDAsMCkiIGZpbGw9InJnYig5Myw5Myw5MykiIHZlY3Rvci1lZmZlY3Q9Im5vbi1zY2FsaW5nLXN0cm9rZSIgc3Ryb2tlLXdpZHRoPSIwLjUiIHN0cm9rZT0icmdiKDQ2LDQ2LDQ2KSIgc3Ryb2tlLWxpbmVqb2luPSJtaXRlciIgc3Ryb2tlLWxpbmVjYXA9InNxdWFyZSIgc3Ryb2tlLW1pdGVybGltaXQ9IjIiLz48cmVjdCB4PSIxMiIgeT0iMTkuNSIgd2lkdGg9IjM0IiBoZWlnaHQ9IjEwIiB0cmFuc2Zvcm09Im1hdHJpeCgxLDAsMCwxLDAsMCkiIGZpbGw9InJnYig5Myw5Myw5MykiIHZlY3Rvci1lZmZlY3Q9Im5vbi1zY2FsaW5nLXN0cm9rZSIgc3Ryb2tlLXdpZHRoPSIwLjUiIHN0cm9rZT0icmdiKDQ2LDQ2LDQ2KSIgc3Ryb2tlLWxpbmVqb2luPSJtaXRlciIgc3Ryb2tlLWxpbmVjYXA9InNxdWFyZSIgc3Ryb2tlLW1pdGVybGltaXQ9IjIiLz48cmVjdCB4PSI0NiIgeT0iMCIgd2lkdGg9IjM0IiBoZWlnaHQ9IjEwIiB0cmFuc2Zvcm09Im1hdHJpeCgxLDAsMCwxLDAsMCkiIGZpbGw9InJnYig5Myw5Myw5MykiIHZlY3Rvci1lZmZlY3Q9Im5vbi1zY2FsaW5nLXN0cm9rZSIgc3Ryb2tlLXdpZHRoPSIwLjUiIHN0cm9rZT0icmdiKDQ2LDQ2LDQ2KSIgc3Ryb2tlLWxpbmVqb2luPSJtaXRlciIgc3Ryb2tlLWxpbmVjYXA9InNxdWFyZSIgc3Ryb2tlLW1pdGVybGltaXQ9IjIiLz48cmVjdCB4PSI0NiIgeT0iMTAiIHdpZHRoPSIzNCIgaGVpZ2h0PSIxMCIgdHJhbnNmb3JtPSJtYXRyaXgoMSwwLDAsMSwwLDApIiBmaWxsPSJyZ2IoOTMsOTMsOTMpIiB2ZWN0b3ItZWZmZWN0PSJub24tc2NhbGluZy1zdHJva2UiIHN0cm9rZS13aWR0aD0iMC41IiBzdHJva2U9InJnYig0Niw0Niw0NikiIHN0cm9rZS1saW5lam9pbj0ibWl0ZXIiIHN0cm9rZS1saW5lY2FwPSJzcXVhcmUiIHN0cm9rZS1taXRlcmxpbWl0PSIyIi8+PHJlY3QgeD0iNDYiIHk9IjE5LjUiIHdpZHRoPSIzNCIgaGVpZ2h0PSIxMCIgdHJhbnNmb3JtPSJtYXRyaXgoMSwwLDAsMSwwLDApIiBmaWxsPSJyZ2IoOTMsOTMsOTMpIiB2ZWN0b3ItZWZmZWN0PSJub24tc2NhbGluZy1zdHJva2UiIHN0cm9rZS13aWR0aD0iMC41IiBzdHJva2U9InJnYig0Niw0Niw0NikiIHN0cm9rZS1saW5lam9pbj0ibWl0ZXIiIHN0cm9rZS1saW5lY2FwPSJzcXVhcmUiIHN0cm9rZS1taXRlcmxpbWl0PSIyIi8+PHJlY3QgeD0iODAiIHk9IjAiIHdpZHRoPSIzNCIgaGVpZ2h0PSIxMCIgdHJhbnNmb3JtPSJtYXRyaXgoMSwwLDAsMSwwLDApIiBmaWxsPSJyZ2IoOTMsOTMsOTMpIiB2ZWN0b3ItZWZmZWN0PSJub24tc2NhbGluZy1zdHJva2UiIHN0cm9rZS13aWR0aD0iMC41IiBzdHJva2U9InJnYig0Niw0Niw0NikiIHN0cm9rZS1saW5lam9pbj0ibWl0ZXIiIHN0cm9rZS1saW5lY2FwPSJzcXVhcmUiIHN0cm9rZS1taXRlcmxpbWl0PSIyIi8+PHJlY3QgeD0iODAiIHk9IjEwIiB3aWR0aD0iMzQiIGhlaWdodD0iMTAiIHRyYW5zZm9ybT0ibWF0cml4KDEsMCwwLDEsMCwwKSIgZmlsbD0icmdiKDkzLDkzLDkzKSIgdmVjdG9yLWVmZmVjdD0ibm9uLXNjYWxpbmctc3Ryb2tlIiBzdHJva2Utd2lkdGg9IjAuNSIgc3Ryb2tlPSJyZ2IoNDYsNDYsNDYpIiBzdHJva2UtbGluZWpvaW49Im1pdGVyIiBzdHJva2UtbGluZWNhcD0ic3F1YXJlIiBzdHJva2UtbWl0ZXJsaW1pdD0iMiIvPjxyZWN0IHg9IjgwIiB5PSIxOS41IiB3aWR0aD0iMzQiIGhlaWdodD0iMTAiIHRyYW5zZm9ybT0ibWF0cml4KDEsMCwwLDEsMCwwKSIgZmlsbD0icmdiKDkzLDkzLDkzKSIgdmVjdG9yLWVmZmVjdD0ibm9uLXNjYWxpbmctc3Ryb2tlIiBzdHJva2Utd2lkdGg9IjAuNSIgc3Ryb2tlPSJyZ2IoNDYsNDYsNDYpIiBzdHJva2UtbGluZWpvaW49Im1pdGVyIiBzdHJva2UtbGluZWNhcD0ic3F1YXJlIiBzdHJva2UtbWl0ZXJsaW1pdD0iMiIvPjxyZWN0IHg9IjExNCIgeT0iMCIgd2lkdGg9IjM0IiBoZWlnaHQ9IjEwIiB0cmFuc2Zvcm09Im1hdHJpeCgxLDAsMCwxLDAsMCkiIGZpbGw9InJnYig5Myw5Myw5MykiIHZlY3Rvci1lZmZlY3Q9Im5vbi1zY2FsaW5nLXN0cm9rZSIgc3Ryb2tlLXdpZHRoPSIwLjUiIHN0cm9rZT0icmdiKDQ2LDQ2LDQ2KSIgc3Ryb2tlLWxpbmVqb2luPSJtaXRlciIgc3Ryb2tlLWxpbmVjYXA9InNxdWFyZSIgc3Ryb2tlLW1pdGVybGltaXQ9IjIiLz48cmVjdCB4PSIxMTQiIHk9IjEwIiB3aWR0aD0iMzQiIGhlaWdodD0iMTAiIHRyYW5zZm9ybT0ibWF0cml4KDEsMCwwLDEsMCwwKSIgZmlsbD0icmdiKDkzLDkzLDkzKSIgdmVjdG9yLWVmZmVjdD0ibm9uLXNjYWxpbmctc3Ryb2tlIiBzdHJva2Utd2lkdGg9IjAuNSIgc3Ryb2tlPSJyZ2IoNDYsNDYsNDYpIiBzdHJva2UtbGluZWpvaW49Im1pdGVyIiBzdHJva2UtbGluZWNhcD0ic3F1YXJlIiBzdHJva2UtbWl0ZXJsaW1pdD0iMiIvPjxyZWN0IHg9IjExNCIgeT0iMTkuNSIgd2lkdGg9IjM0IiBoZWlnaHQ9IjEwIiB0cmFuc2Zvcm09Im1hdHJpeCgxLDAsMCwxLDAsMCkiIGZpbGw9InJnYig5Myw5Myw5MykiIHZlY3Rvci1lZmZlY3Q9Im5vbi1zY2FsaW5nLXN0cm9rZSIgc3Ryb2tlLXdpZHRoPSIwLjUiIHN0cm9rZT0icmdiKDQ2LDQ2LDQ2KSIgc3Ryb2tlLWxpbmVqb2luPSJtaXRlciIgc3Ryb2tlLWxpbmVjYXA9InNxdWFyZSIgc3Ryb2tlLW1pdGVybGltaXQ9IjIiLz48cmVjdCB4PSIxNCIgeT0iMiIgd2lkdGg9IjIyIiBoZWlnaHQ9IjEiIHRyYW5zZm9ybT0ibWF0cml4KDEsMCwwLDEsMCwwKSIgZmlsbD0icmdiKDcwLDcwLDcwKSIvPjxyZWN0IHg9IjE0IiB5PSI0LjUiIHdpZHRoPSIyMiIgaGVpZ2h0PSIxIiB0cmFuc2Zvcm09Im1hdHJpeCgxLDAsMCwxLDAsMCkiIGZpbGw9InJnYig3MCw3MCw3MCkiLz48cmVjdCB4PSIxNCIgeT0iNyIgd2lkdGg9IjIyIiBoZWlnaHQ9IjEiIHRyYW5zZm9ybT0ibWF0cml4KDEsMCwwLDEsMCwwKSIgZmlsbD0icmdiKDcwLDcwLDcwKSIvPjxyZWN0IHg9IjE0IiB5PSIxMiIgd2lkdGg9IjIyIiBoZWlnaHQ9IjEiIHRyYW5zZm9ybT0ibWF0cml4KDEsMCwwLDEsMCwwKSIgZmlsbD0icmdiKDcwLDcwLDcwKSIvPjxyZWN0IHg9IjE0IiB5PSIxNC41IiB3aWR0aD0iMjIiIGhlaWdodD0iMSIgdHJhbnNmb3JtPSJtYXRyaXgoMSwwLDAsMSwwLDApIiBmaWxsPSJyZ2IoNzAsNzAsNzApIi8+PHJlY3QgeD0iMTQiIHk9IjE3IiB3aWR0aD0iMjIiIGhlaWdodD0iMSIgdHJhbnNmb3JtPSJtYXRyaXgoMSwwLDAsMSwwLDApIiBmaWxsPSJyZ2IoNzAsNzAsNzApIi8+PHJlY3QgeD0iMTQiIHk9IjIyIiB3aWR0aD0iMjIiIGhlaWdodD0iMSIgdHJhbnNmb3JtPSJtYXRyaXgoMSwwLDAsMSwwLDApIiBmaWxsPSJyZ2IoNzAsNzAsNzApIi8+PHJlY3QgeD0iMTQiIHk9IjI0LjUiIHdpZHRoPSIyMiIgaGVpZ2h0PSIxIiB0cmFuc2Zvcm09Im1hdHJpeCgxLDAsMCwxLDAsMCkiIGZpbGw9InJnYig3MCw3MCw3MCkiLz48cmVjdCB4PSIxNCIgeT0iMjciIHdpZHRoPSIyMiIgaGVpZ2h0PSIxIiB0cmFuc2Zvcm09Im1hdHJpeCgxLDAsMCwxLDAsMCkiIGZpbGw9InJnYig3MCw3MCw3MCkiLz48cmVjdCB4PSIzNy45ODEiIHk9IjEuOTgxIiB3aWR0aD0iNi4wMjQiIGhlaWdodD0iNi4wMTkiIHRyYW5zZm9ybT0ibWF0cml4KDEsMC4wMiwtMC4wMiwxLDAuMTA3LC0wLjgxMSkiIGZpbGw9InJnYig3MCw3MCw3MCkiLz48cmVjdCB4PSIzNy45MjIiIHk9IjIuNSIgd2lkdGg9IjEuMDc4IiBoZWlnaHQ9IjUiIHRyYW5zZm9ybT0ibWF0cml4KDEsMCwwLDEsMCwwKSIgZmlsbD0icmdiKDE1NCwyMTAsMjU1KSIvPjxyZWN0IHg9IjM3Ljk4MSIgeT0iMTEuOTkxIiB3aWR0aD0iNi4wMjQiIGhlaWdodD0iNi4wMTkiIHRyYW5zZm9ybT0ibWF0cml4KDEsMC4wMiwtMC4wMiwxLDAuMzA1LC0wLjgwOSkiIGZpbGw9InJnYig3MCw3MCw3MCkiLz48cmVjdCB4PSIzNy45MjIiIHk9IjEyLjUxIiB3aWR0aD0iMS4wNzgiIGhlaWdodD0iNSIgdHJhbnNmb3JtPSJtYXRyaXgoMSwwLDAsMSwwLDApIiBmaWxsPSJyZ2IoMTU0LDIxMCwyNTUpIi8+PHJlY3QgeD0iMzcuOTgxIiB5PSIyMi4wMDEiIHdpZHRoPSI2LjAyNCIgaGVpZ2h0PSI2LjAxOSIgdHJhbnNmb3JtPSJtYXRyaXgoMSwwLjAyLC0wLjAyLDEsMC41MDMsLTAuODA3KSIgZmlsbD0icmdiKDcwLDcwLDcwKSIvPjxyZWN0IHg9IjM3LjkyMiIgeT0iMjIuNTIiIHdpZHRoPSIxLjA3OCIgaGVpZ2h0PSI1IiB0cmFuc2Zvcm09Im1hdHJpeCgxLDAsMCwxLDAsMCkiIGZpbGw9InJnYigxNTQsMjEwLDI1NSkiLz48cmVjdCB4PSI0Ny45NjgiIHk9IjEuOTIyIiB3aWR0aD0iMjIiIGhlaWdodD0iMSIgdHJhbnNmb3JtPSJtYXRyaXgoMSwwLDAsMSwwLDApIiBmaWxsPSJyZ2IoNzAsNzAsNzApIi8+PHJlY3QgeD0iNDcuOTY4IiB5PSI0LjQyMiIgd2lkdGg9IjIyIiBoZWlnaHQ9IjEiIHRyYW5zZm9ybT0ibWF0cml4KDEsMCwwLDEsMCwwKSIgZmlsbD0icmdiKDcwLDcwLDcwKSIvPjxyZWN0IHg9IjQ3Ljk2OCIgeT0iNi45MjIiIHdpZHRoPSIyMiIgaGVpZ2h0PSIxIiB0cmFuc2Zvcm09Im1hdHJpeCgxLDAsMCwxLDAsMCkiIGZpbGw9InJnYig3MCw3MCw3MCkiLz48cmVjdCB4PSI0Ny45NjgiIHk9IjExLjkyMiIgd2lkdGg9IjIyIiBoZWlnaHQ9IjEiIHRyYW5zZm9ybT0ibWF0cml4KDEsMCwwLDEsMCwwKSIgZmlsbD0icmdiKDcwLDcwLDcwKSIvPjxyZWN0IHg9IjQ3Ljk2OCIgeT0iMTQuNDIyIiB3aWR0aD0iMjIiIGhlaWdodD0iMSIgdHJhbnNmb3JtPSJtYXRyaXgoMSwwLDAsMSwwLDApIiBmaWxsPSJyZ2IoNzAsNzAsNzApIi8+PHJlY3QgeD0iNDcuOTY4IiB5PSIxNi45MjIiIHdpZHRoPSIyMiIgaGVpZ2h0PSIxIiB0cmFuc2Zvcm09Im1hdHJpeCgxLDAsMCwxLDAsMCkiIGZpbGw9InJnYig3MCw3MCw3MCkiLz48cmVjdCB4PSI0Ny45NjgiIHk9IjIxLjkyMiIgd2lkdGg9IjIyIiBoZWlnaHQ9IjEiIHRyYW5zZm9ybT0ibWF0cml4KDEsMCwwLDEsMCwwKSIgZmlsbD0icmdiKDcwLDcwLDcwKSIvPjxyZWN0IHg9IjQ3Ljk2OCIgeT0iMjQuNDIyIiB3aWR0aD0iMjIiIGhlaWdodD0iMSIgdHJhbnNmb3JtPSJtYXRyaXgoMSwwLDAsMSwwLDApIiBmaWxsPSJyZ2IoNzAsNzAsNzApIi8+PHJlY3QgeD0iNDcuOTY4IiB5PSIyNi45MjIiIHdpZHRoPSIyMiIgaGVpZ2h0PSIxIiB0cmFuc2Zvcm09Im1hdHJpeCgxLDAsMCwxLDAsMCkiIGZpbGw9InJnYig3MCw3MCw3MCkiLz48cmVjdCB4PSI3MS45NDkiIHk9IjEuOTAyIiB3aWR0aD0iNi4wMjQiIGhlaWdodD0iNi4wMTkiIHRyYW5zZm9ybT0ibWF0cml4KDEsMC4wMiwtMC4wMiwxLDAuMTEyLC0xLjQ4MykiIGZpbGw9InJnYig3MCw3MCw3MCkiLz48cmVjdCB4PSI3MS44OSIgeT0iMi40MjIiIHdpZHRoPSIxLjA3OCIgaGVpZ2h0PSI1IiB0cmFuc2Zvcm09Im1hdHJpeCgxLDAsMCwxLDAsMCkiIGZpbGw9InJnYigxNTQsMjEwLDI1NSkiLz48cmVjdCB4PSI3MS45NDkiIHk9IjExLjkxMiIgd2lkdGg9IjYuMDI0IiBoZWlnaHQ9IjYuMDE5IiB0cmFuc2Zvcm09Im1hdHJpeCgxLDAuMDIsLTAuMDIsMSwwLjMxLC0xLjQ4MSkiIGZpbGw9InJnYig3MCw3MCw3MCkiLz48cmVjdCB4PSI3MS44OSIgeT0iMTIuNDMyIiB3aWR0aD0iMS4wNzgiIGhlaWdodD0iNSIgdHJhbnNmb3JtPSJtYXRyaXgoMSwwLDAsMSwwLDApIiBmaWxsPSJyZ2IoMTU0LDIxMCwyNTUpIi8+PHJlY3QgeD0iNzEuOTQ5IiB5PSIyMS45MjIiIHdpZHRoPSI2LjAyNCIgaGVpZ2h0PSI2LjAxOSIgdHJhbnNmb3JtPSJtYXRyaXgoMSwwLjAyLC0wLjAyLDEsMC41MDgsLTEuNDc5KSIgZmlsbD0icmdiKDcwLDcwLDcwKSIvPjxyZWN0IHg9IjcxLjg5IiB5PSIyMi40NDIiIHdpZHRoPSIxLjA3OCIgaGVpZ2h0PSI1IiB0cmFuc2Zvcm09Im1hdHJpeCgxLDAsMCwxLDAsMCkiIGZpbGw9InJnYigxNTQsMjEwLDI1NSkiLz48cmVjdCB4PSI4MS45NjgiIHk9IjEuOTIyIiB3aWR0aD0iMjIiIGhlaWdodD0iMSIgdHJhbnNmb3JtPSJtYXRyaXgoMSwwLDAsMSwwLDApIiBmaWxsPSJyZ2IoNzAsNzAsNzApIi8+PHJlY3QgeD0iODEuOTY4IiB5PSI0LjQyMiIgd2lkdGg9IjIyIiBoZWlnaHQ9IjEiIHRyYW5zZm9ybT0ibWF0cml4KDEsMCwwLDEsMCwwKSIgZmlsbD0icmdiKDcwLDcwLDcwKSIvPjxyZWN0IHg9IjgxLjk2OCIgeT0iNi45MjIiIHdpZHRoPSIyMiIgaGVpZ2h0PSIxIiB0cmFuc2Zvcm09Im1hdHJpeCgxLDAsMCwxLDAsMCkiIGZpbGw9InJnYig3MCw3MCw3MCkiLz48cmVjdCB4PSI4MS45NjgiIHk9IjExLjkyMiIgd2lkdGg9IjIyIiBoZWlnaHQ9IjEiIHRyYW5zZm9ybT0ibWF0cml4KDEsMCwwLDEsMCwwKSIgZmlsbD0icmdiKDcwLDcwLDcwKSIvPjxyZWN0IHg9IjgxLjk2OCIgeT0iMTQuNDIyIiB3aWR0aD0iMjIiIGhlaWdodD0iMSIgdHJhbnNmb3JtPSJtYXRyaXgoMSwwLDAsMSwwLDApIiBmaWxsPSJyZ2IoNzAsNzAsNzApIi8+PHJlY3QgeD0iODEuOTY4IiB5PSIxNi45MjIiIHdpZHRoPSIyMiIgaGVpZ2h0PSIxIiB0cmFuc2Zvcm09Im1hdHJpeCgxLDAsMCwxLDAsMCkiIGZpbGw9InJnYig3MCw3MCw3MCkiLz48cmVjdCB4PSI4MS45NjgiIHk9IjIxLjkyMiIgd2lkdGg9IjIyIiBoZWlnaHQ9IjEiIHRyYW5zZm9ybT0ibWF0cml4KDEsMCwwLDEsMCwwKSIgZmlsbD0icmdiKDcwLDcwLDcwKSIvPjxyZWN0IHg9IjgxLjk2OCIgeT0iMjQuNDIyIiB3aWR0aD0iMjIiIGhlaWdodD0iMSIgdHJhbnNmb3JtPSJtYXRyaXgoMSwwLDAsMSwwLDApIiBmaWxsPSJyZ2IoNzAsNzAsNzApIi8+PHJlY3QgeD0iODEuOTY4IiB5PSIyNi45MjIiIHdpZHRoPSIyMiIgaGVpZ2h0PSIxIiB0cmFuc2Zvcm09Im1hdHJpeCgxLDAsMCwxLDAsMCkiIGZpbGw9InJnYig3MCw3MCw3MCkiLz48cmVjdCB4PSIxMDUuOTQ5IiB5PSIxLjkwMiIgd2lkdGg9IjYuMDI0IiBoZWlnaHQ9IjYuMDE5IiB0cmFuc2Zvcm09Im1hdHJpeCgxLDAuMDIsLTAuMDIsMSwwLjExOSwtMi4xNTYpIiBmaWxsPSJyZ2IoNzAsNzAsNzApIi8+PHJlY3QgeD0iMTA1Ljg5IiB5PSIyLjQyMiIgd2lkdGg9IjEuMDc4IiBoZWlnaHQ9IjUiIHRyYW5zZm9ybT0ibWF0cml4KDEsMCwwLDEsMCwwKSIgZmlsbD0icmdiKDE1NCwyMTAsMjU1KSIvPjxyZWN0IHg9IjEwNS45NDkiIHk9IjExLjkxMiIgd2lkdGg9IjYuMDI0IiBoZWlnaHQ9IjYuMDE5IiB0cmFuc2Zvcm09Im1hdHJpeCgxLDAuMDIsLTAuMDIsMSwwLjMxNywtMi4xNTQpIiBmaWxsPSJyZ2IoNzAsNzAsNzApIi8+PHJlY3QgeD0iMTA1Ljg5IiB5PSIxMi40MzIiIHdpZHRoPSIxLjA3OCIgaGVpZ2h0PSI1IiB0cmFuc2Zvcm09Im1hdHJpeCgxLDAsMCwxLDAsMCkiIGZpbGw9InJnYigxNTQsMjEwLDI1NSkiLz48cmVjdCB4PSIxMDUuOTQ5IiB5PSIyMS45MjIiIHdpZHRoPSI2LjAyNCIgaGVpZ2h0PSI2LjAxOSIgdHJhbnNmb3JtPSJtYXRyaXgoMSwwLjAyLC0wLjAyLDEsMC41MTUsLTIuMTUyKSIgZmlsbD0icmdiKDcwLDcwLDcwKSIvPjxyZWN0IHg9IjEwNS44OSIgeT0iMjIuNDQyIiB3aWR0aD0iMS4wNzgiIGhlaWdodD0iNSIgdHJhbnNmb3JtPSJtYXRyaXgoMSwwLDAsMSwwLDApIiBmaWxsPSJyZ2IoMTU0LDIxMCwyNTUpIi8+PHJlY3QgeD0iMTE1Ljk2OCIgeT0iMS45MjIiIHdpZHRoPSIyMiIgaGVpZ2h0PSIxIiB0cmFuc2Zvcm09Im1hdHJpeCgxLDAsMCwxLDAsMCkiIGZpbGw9InJnYig3MCw3MCw3MCkiLz48cmVjdCB4PSIxMTUuOTY4IiB5PSI0LjQyMiIgd2lkdGg9IjIyIiBoZWlnaHQ9IjEiIHRyYW5zZm9ybT0ibWF0cml4KDEsMCwwLDEsMCwwKSIgZmlsbD0icmdiKDcwLDcwLDcwKSIvPjxyZWN0IHg9IjExNS45NjgiIHk9IjYuOTIyIiB3aWR0aD0iMjIiIGhlaWdodD0iMSIgdHJhbnNmb3JtPSJtYXRyaXgoMSwwLDAsMSwwLDApIiBmaWxsPSJyZ2IoNzAsNzAsNzApIi8+PHJlY3QgeD0iMTE1Ljk2OCIgeT0iMTEuOTIyIiB3aWR0aD0iMjIiIGhlaWdodD0iMSIgdHJhbnNmb3JtPSJtYXRyaXgoMSwwLDAsMSwwLDApIiBmaWxsPSJyZ2IoNzAsNzAsNzApIi8+PHJlY3QgeD0iMTE1Ljk2OCIgeT0iMTQuNDIyIiB3aWR0aD0iMjIiIGhlaWdodD0iMSIgdHJhbnNmb3JtPSJtYXRyaXgoMSwwLDAsMSwwLDApIiBmaWxsPSJyZ2IoNzAsNzAsNzApIi8+PHJlY3QgeD0iMTE1Ljk2OCIgeT0iMTYuOTIyIiB3aWR0aD0iMjIiIGhlaWdodD0iMSIgdHJhbnNmb3JtPSJtYXRyaXgoMSwwLDAsMSwwLDApIiBmaWxsPSJyZ2IoNzAsNzAsNzApIi8+PHJlY3QgeD0iMTE1Ljk2OCIgeT0iMjEuOTIyIiB3aWR0aD0iMjIiIGhlaWdodD0iMSIgdHJhbnNmb3JtPSJtYXRyaXgoMSwwLDAsMSwwLDApIiBmaWxsPSJyZ2IoNzAsNzAsNzApIi8+PHJlY3QgeD0iMTE1Ljk2OCIgeT0iMjQuNDIyIiB3aWR0aD0iMjIiIGhlaWdodD0iMSIgdHJhbnNmb3JtPSJtYXRyaXgoMSwwLDAsMSwwLDApIiBmaWxsPSJyZ2IoNzAsNzAsNzApIi8+PHJlY3QgeD0iMTE1Ljk2OCIgeT0iMjYuOTIyIiB3aWR0aD0iMjIiIGhlaWdodD0iMSIgdHJhbnNmb3JtPSJtYXRyaXgoMSwwLDAsMSwwLDApIiBmaWxsPSJyZ2IoNzAsNzAsNzApIi8+PHJlY3QgeD0iMTM5Ljk0OSIgeT0iMS45MDIiIHdpZHRoPSI2LjAyNCIgaGVpZ2h0PSI2LjAxOSIgdHJhbnNmb3JtPSJtYXRyaXgoMSwwLjAyLC0wLjAyLDEsMC4xMjUsLTIuODI5KSIgZmlsbD0icmdiKDcwLDcwLDcwKSIvPjxyZWN0IHg9IjEzOS44OSIgeT0iMi40MjIiIHdpZHRoPSIxLjA3OCIgaGVpZ2h0PSI1IiB0cmFuc2Zvcm09Im1hdHJpeCgxLDAsMCwxLDAsMCkiIGZpbGw9InJnYigxNTQsMjEwLDI1NSkiLz48cmVjdCB4PSIxMzkuOTQ5IiB5PSIxMS45MTIiIHdpZHRoPSI2LjAyNCIgaGVpZ2h0PSI2LjAxOSIgdHJhbnNmb3JtPSJtYXRyaXgoMSwwLjAyLC0wLjAyLDEsMC4zMjMsLTIuODI3KSIgZmlsbD0icmdiKDcwLDcwLDcwKSIvPjxyZWN0IHg9IjEzOS44OSIgeT0iMTIuNDMyIiB3aWR0aD0iMS4wNzgiIGhlaWdodD0iNSIgdHJhbnNmb3JtPSJtYXRyaXgoMSwwLDAsMSwwLDApIiBmaWxsPSJyZ2IoMTU0LDIxMCwyNTUpIi8+PHJlY3QgeD0iMTM5Ljk0OSIgeT0iMjEuOTIyIiB3aWR0aD0iNi4wMjQiIGhlaWdodD0iNi4wMTkiIHRyYW5zZm9ybT0ibWF0cml4KDEsMC4wMiwtMC4wMiwxLDAuNTIyLC0yLjgyNSkiIGZpbGw9InJnYig3MCw3MCw3MCkiLz48cmVjdCB4PSIxMzkuODkiIHk9IjIyLjQ0MiIgd2lkdGg9IjEuMDc4IiBoZWlnaHQ9IjUiIHRyYW5zZm9ybT0ibWF0cml4KDEsMCwwLDEsMCwwKSIgZmlsbD0icmdiKDE1NCwyMTAsMjU1KSIvPjxjaXJjbGUgdmVjdG9yLWVmZmVjdD0ibm9uLXNjYWxpbmctc3Ryb2tlIiBjeD0iMTAuNSIgY3k9IjEwLjk5OTk5OTk5OTk5OTk5NSIgcj0iMC41IiBmaWxsPSJyZ2IoMjU1LDEyMSwxMjEpIi8+PGNpcmNsZSB2ZWN0b3ItZWZmZWN0PSJub24tc2NhbGluZy1zdHJva2UiIGN4PSIxMC41IiBjeT0iMTIuOTk5OTk5OTk5OTk5OTk2IiByPSIwLjUiIGZpbGw9InJnYigyNTUsMTIxLDEyMSkiLz48Y2lyY2xlIHZlY3Rvci1lZmZlY3Q9Im5vbi1zY2FsaW5nLXN0cm9rZSIgY3g9IjEwLjUiIGN5PSIxNC45OTk5OTk5OTk5OTk5OTgiIHI9IjAuNSIgZmlsbD0icmdiKDE3MywyMTMsMTY2KSIvPjxjaXJjbGUgdmVjdG9yLWVmZmVjdD0ibm9uLXNjYWxpbmctc3Ryb2tlIiBjeD0iMTAuNSIgY3k9IjE3IiByPSIwLjUiIGZpbGw9InJnYigxNzMsMjEzLDE2NikiLz48Y2lyY2xlIHZlY3Rvci1lZmZlY3Q9Im5vbi1zY2FsaW5nLXN0cm9rZSIgY3g9IjEwLjUiIGN5PSIxOSIgcj0iMC41IiBmaWxsPSJyZ2IoMTczLDIxMywxNjYpIi8+PGNpcmNsZSB2ZWN0b3ItZWZmZWN0PSJub24tc2NhbGluZy1zdHJva2UiIGN4PSI0NSIgY3k9IjE4LjA2ODM1MzY5OTE3NjczIiByPSIwLjUiIGZpbGw9InJnYigxNzMsMjEzLDE2NikiLz48Y2lyY2xlIHZlY3Rvci1lZmZlY3Q9Im5vbi1zY2FsaW5nLXN0cm9rZSIgY3g9IjQ1IiBjeT0iMjguMDc4MzkyOTQ0NjM0OTg0IiByPSIwLjUiIGZpbGw9InJnYigxNzMsMjEzLDE2NikiLz48L2c+PC9zdmc+;imageBorder=#000000;strokeWidth=2;labelPosition=right;align=left;spacingLeft=22;" parent="KMFgPlAvmUF1ZaRBxyUd-1" vertex="1">
          <mxGeometry x="523" y="831" width="218" height="40" as="geometry" />
        </mxCell>
        <mxCell id="sjXUW3FMl3AlOk6j_Q3A-0" value="Eaton 5PX 1500 Uninterruptable Power Supply" style="shape=image;verticalLabelPosition=middle;verticalAlign=middle;imageAspect=0;image=data:image/svg+xml,PHN2ZyB4bWxucz0iaHR0cDovL3d3dy53My5vcmcvMjAwMC9zdmciIHhtbG5zOnhsaW5rPSJodHRwOi8vd3d3LnczLm9yZy8xOTk5L3hsaW5rIiBzdHlsZT0iaXNvbGF0aW9uOmlzb2xhdGUiIHZpZXdCb3g9IjAgMCAxNjAgMzAiIHdpZHRoPSIxNjBwdCIgaGVpZ2h0PSIzMHB0Ij48ZGVmcz48Y2xpcFBhdGggaWQ9Il9jbGlwUGF0aF9Fd1RnN3l3dW5zNGRROUpoSXE3SGwwU2U5YmJHUlBNSSI+PHJlY3Qgd2lkdGg9IjE2MCIgaGVpZ2h0PSIzMCIvPjwvY2xpcFBhdGg+PC9kZWZzPjxnIGNsaXAtcGF0aD0idXJsKCNfY2xpcFBhdGhfRXdUZzd5d3VuczRkUTlKaElxN0hsMFNlOWJiR1JQTUkpIj48cmVjdCB4PSIwIiB5PSIwIiB3aWR0aD0iMTYwIiBoZWlnaHQ9IjMwIiB0cmFuc2Zvcm09Im1hdHJpeCgxLDAsMCwxLDAsMCkiIGZpbGw9InJnYig3MCw3MCw3MCkiLz48cmVjdCB4PSIwIiB5PSIwIiB3aWR0aD0iMTIiIGhlaWdodD0iMzAiIHRyYW5zZm9ybT0ibWF0cml4KDEsMCwwLDEsMCwwKSIgZmlsbD0icmdiKDQ2LDQ2LDQ2KSIvPjxyZWN0IHg9IjAiIHk9IjAiIHdpZHRoPSIxMiIgaGVpZ2h0PSIzMCIgdHJhbnNmb3JtPSJtYXRyaXgoMSwwLDAsMSwwLDApIiBmaWxsPSJyZ2IoNDYsNDYsNDYpIi8+PHJlY3QgeD0iMTQ4IiB5PSIwIiB3aWR0aD0iMTIiIGhlaWdodD0iMzAiIHRyYW5zZm9ybT0ibWF0cml4KDEsMCwwLDEsMCwwKSIgZmlsbD0icmdiKDQ2LDQ2LDQ2KSIvPjxyZWN0IHg9IjMiIHk9IjQiIHdpZHRoPSI2IiBoZWlnaHQ9IjIyIiB0cmFuc2Zvcm09Im1hdHJpeCgxLDAsMCwxLDAsMCkiIGZpbGw9InJnYigyMzIsMjMyLDIzMikiLz48cmVjdCB4PSIxNTEiIHk9IjQiIHdpZHRoPSI2IiBoZWlnaHQ9IjIyIiB0cmFuc2Zvcm09Im1hdHJpeCgxLDAsMCwxLDAsMCkiIGZpbGw9InJnYigyMzIsMjMyLDIzMikiLz48ZGVmcz48ZmlsdGVyIGlkPSJCS0wzdGNvUjJXVWNGR3FUWmphN1V2R0phdFl3SFowdCIgeD0iLTIwMCUiIHk9Ii0yMDAlIiB3aWR0aD0iNDAwJSIgaGVpZ2h0PSI0MDAlIiBmaWx0ZXJVbml0cz0ib2JqZWN0Qm91bmRpbmdCb3giIGNvbG9yLWludGVycG9sYXRpb24tZmlsdGVycz0ic1JHQiI+PGZlT2Zmc2V0IHhtbG5zPSJodHRwOi8vd3d3LnczLm9yZy8yMDAwL3N2ZyIgaW49IlNvdXJjZUdyYXBoaWMiIGR4PSIwIiBkeT0iMSIvPjxmZUdhdXNzaWFuQmx1ciB4bWxucz0iaHR0cDovL3d3dy53My5vcmcvMjAwMC9zdmciIHN0ZERldmlhdGlvbj0iMCIgcmVzdWx0PSJwZl8xMDBfb2Zmc2V0Qmx1ciIvPjxmZUNvbXBvc2l0ZSB4bWxucz0iaHR0cDovL3d3dy53My5vcmcvMjAwMC9zdmciIGluPSJTb3VyY2VHcmFwaGljIiBpbjI9InBmXzEwMF9vZmZzZXRCbHVyIiByZXN1bHQ9InBmXzEwMF9pbnZlcnNlIiBvcGVyYXRvcj0ib3V0Ii8+PGZlRmxvb2QgeG1sbnM9Imh0dHA6Ly93d3cudzMub3JnLzIwMDAvc3ZnIiBmbG9vZC1jb2xvcj0iI0I5QjlCOSIgZmxvb2Qtb3BhY2l0eT0iMSIgcmVzdWx0PSJwZl8xMDBfY29sb3IiLz48ZmVDb21wb3NpdGUgeG1sbnM9Imh0dHA6Ly93d3cudzMub3JnLzIwMDAvc3ZnIiBpbj0icGZfMTAwX2NvbG9yIiBpbjI9InBmXzEwMF9pbnZlcnNlIiBvcGVyYXRvcj0iaW4iIHJlc3VsdD0icGZfMTAwX3NoYWRvdyIvPjxmZUNvbXBvc2l0ZSB4bWxucz0iaHR0cDovL3d3dy53My5vcmcvMjAwMC9zdmciIGluPSJwZl8xMDBfc2hhZG93IiBpbjI9IlNvdXJjZUdyYXBoaWMiIG9wZXJhdG9yPSJvdmVyIi8+PC9maWx0ZXI+PC9kZWZzPjxnIGZpbHRlcj0idXJsKCNCS0wzdGNvUjJXVWNGR3FUWmphN1V2R0phdFl3SFowdCkiPjxyZWN0IHg9IjMiIHk9IjQiIHdpZHRoPSI2IiBoZWlnaHQ9IjMiIHRyYW5zZm9ybT0ibWF0cml4KDEsMCwwLDEsMCwwKSIgZmlsbD0icmdiKDIwOSwyMDksMjA5KSIvPjwvZz48ZGVmcz48ZmlsdGVyIGlkPSIxOEN6Z0E4VHBhYmo0UVBsMkR1cnFPSFlRbm9pN3F0eiIgeD0iLTIwMCUiIHk9Ii0yMDAlIiB3aWR0aD0iNDAwJSIgaGVpZ2h0PSI0MDAlIiBmaWx0ZXJVbml0cz0ib2JqZWN0Qm91bmRpbmdCb3giIGNvbG9yLWludGVycG9sYXRpb24tZmlsdGVycz0ic1JHQiI+PGZlT2Zmc2V0IHhtbG5zPSJodHRwOi8vd3d3LnczLm9yZy8yMDAwL3N2ZyIgaW49IlNvdXJjZUdyYXBoaWMiIGR4PSIwIiBkeT0iLTEiLz48ZmVHYXVzc2lhbkJsdXIgeG1sbnM9Imh0dHA6Ly93d3cudzMub3JnLzIwMDAvc3ZnIiBzdGREZXZpYXRpb249IjAiIHJlc3VsdD0icGZfMTAwX29mZnNldEJsdXIiLz48ZmVDb21wb3NpdGUgeG1sbnM9Imh0dHA6Ly93d3cudzMub3JnLzIwMDAvc3ZnIiBpbj0iU291cmNlR3JhcGhpYyIgaW4yPSJwZl8xMDBfb2Zmc2V0Qmx1ciIgcmVzdWx0PSJwZl8xMDBfaW52ZXJzZSIgb3BlcmF0b3I9Im91dCIvPjxmZUZsb29kIHhtbG5zPSJodHRwOi8vd3d3LnczLm9yZy8yMDAwL3N2ZyIgZmxvb2QtY29sb3I9IiNCOUI5QjkiIGZsb29kLW9wYWNpdHk9IjEiIHJlc3VsdD0icGZfMTAwX2NvbG9yIi8+PGZlQ29tcG9zaXRlIHhtbG5zPSJodHRwOi8vd3d3LnczLm9yZy8yMDAwL3N2ZyIgaW49InBmXzEwMF9jb2xvciIgaW4yPSJwZl8xMDBfaW52ZXJzZSIgb3BlcmF0b3I9ImluIiByZXN1bHQ9InBmXzEwMF9zaGFkb3ciLz48ZmVDb21wb3NpdGUgeG1sbnM9Imh0dHA6Ly93d3cudzMub3JnLzIwMDAvc3ZnIiBpbj0icGZfMTAwX3NoYWRvdyIgaW4yPSJTb3VyY2VHcmFwaGljIiBvcGVyYXRvcj0ib3ZlciIvPjwvZmlsdGVyPjwvZGVmcz48ZyBmaWx0ZXI9InVybCgjMThDemdBOFRwYWJqNFFQbDJEdXJxT0hZUW5vaTdxdHopIj48cmVjdCB4PSIzIiB5PSIyMyIgd2lkdGg9IjYiIGhlaWdodD0iMyIgdHJhbnNmb3JtPSJtYXRyaXgoMSwwLDAsMSwwLDApIiBmaWxsPSJyZ2IoMjA5LDIwOSwyMDkpIi8+PC9nPjxkZWZzPjxmaWx0ZXIgaWQ9IkkwamRnSXlicGJVeHltbDhnWmJhOU5oN3pXeENWR1ByIiB4PSItMjAwJSIgeT0iLTIwMCUiIHdpZHRoPSI0MDAlIiBoZWlnaHQ9IjQwMCUiIGZpbHRlclVuaXRzPSJvYmplY3RCb3VuZGluZ0JveCIgY29sb3ItaW50ZXJwb2xhdGlvbi1maWx0ZXJzPSJzUkdCIj48ZmVPZmZzZXQgeG1sbnM9Imh0dHA6Ly93d3cudzMub3JnLzIwMDAvc3ZnIiBpbj0iU291cmNlR3JhcGhpYyIgZHg9IjAiIGR5PSIxIi8+PGZlR2F1c3NpYW5CbHVyIHhtbG5zPSJodHRwOi8vd3d3LnczLm9yZy8yMDAwL3N2ZyIgc3RkRGV2aWF0aW9uPSIwIiByZXN1bHQ9InBmXzEwMF9vZmZzZXRCbHVyIi8+PGZlQ29tcG9zaXRlIHhtbG5zPSJodHRwOi8vd3d3LnczLm9yZy8yMDAwL3N2ZyIgaW49IlNvdXJjZUdyYXBoaWMiIGluMj0icGZfMTAwX29mZnNldEJsdXIiIHJlc3VsdD0icGZfMTAwX2ludmVyc2UiIG9wZXJhdG9yPSJvdXQiLz48ZmVGbG9vZCB4bWxucz0iaHR0cDovL3d3dy53My5vcmcvMjAwMC9zdmciIGZsb29kLWNvbG9yPSIjQjlCOUI5IiBmbG9vZC1vcGFjaXR5PSIxIiByZXN1bHQ9InBmXzEwMF9jb2xvciIvPjxmZUNvbXBvc2l0ZSB4bWxucz0iaHR0cDovL3d3dy53My5vcmcvMjAwMC9zdmciIGluPSJwZl8xMDBfY29sb3IiIGluMj0icGZfMTAwX2ludmVyc2UiIG9wZXJhdG9yPSJpbiIgcmVzdWx0PSJwZl8xMDBfc2hhZG93Ii8+PGZlQ29tcG9zaXRlIHhtbG5zPSJodHRwOi8vd3d3LnczLm9yZy8yMDAwL3N2ZyIgaW49InBmXzEwMF9zaGFkb3ciIGluMj0iU291cmNlR3JhcGhpYyIgb3BlcmF0b3I9Im92ZXIiLz48L2ZpbHRlcj48L2RlZnM+PGcgZmlsdGVyPSJ1cmwoI0kwamRnSXlicGJVeHltbDhnWmJhOU5oN3pXeENWR1ByKSI+PHJlY3QgeD0iMTUxIiB5PSI0IiB3aWR0aD0iNiIgaGVpZ2h0PSIzIiB0cmFuc2Zvcm09Im1hdHJpeCgxLDAsMCwxLDAsMCkiIGZpbGw9InJnYigyMDksMjA5LDIwOSkiLz48L2c+PGRlZnM+PGZpbHRlciBpZD0iWUNSNk1aYUdxSGxRQTdzUnNlbUV1eWhWNE5kWjJKTjEiIHg9Ii0yMDAlIiB5PSItMjAwJSIgd2lkdGg9IjQwMCUiIGhlaWdodD0iNDAwJSIgZmlsdGVyVW5pdHM9Im9iamVjdEJvdW5kaW5nQm94IiBjb2xvci1pbnRlcnBvbGF0aW9uLWZpbHRlcnM9InNSR0IiPjxmZU9mZnNldCB4bWxucz0iaHR0cDovL3d3dy53My5vcmcvMjAwMC9zdmciIGluPSJTb3VyY2VHcmFwaGljIiBkeD0iMCIgZHk9Ii0xIi8+PGZlR2F1c3NpYW5CbHVyIHhtbG5zPSJodHRwOi8vd3d3LnczLm9yZy8yMDAwL3N2ZyIgc3RkRGV2aWF0aW9uPSIwIiByZXN1bHQ9InBmXzEwMF9vZmZzZXRCbHVyIi8+PGZlQ29tcG9zaXRlIHhtbG5zPSJodHRwOi8vd3d3LnczLm9yZy8yMDAwL3N2ZyIgaW49IlNvdXJjZUdyYXBoaWMiIGluMj0icGZfMTAwX29mZnNldEJsdXIiIHJlc3VsdD0icGZfMTAwX2ludmVyc2UiIG9wZXJhdG9yPSJvdXQiLz48ZmVGbG9vZCB4bWxucz0iaHR0cDovL3d3dy53My5vcmcvMjAwMC9zdmciIGZsb29kLWNvbG9yPSIjQjlCOUI5IiBmbG9vZC1vcGFjaXR5PSIxIiByZXN1bHQ9InBmXzEwMF9jb2xvciIvPjxmZUNvbXBvc2l0ZSB4bWxucz0iaHR0cDovL3d3dy53My5vcmcvMjAwMC9zdmciIGluPSJwZl8xMDBfY29sb3IiIGluMj0icGZfMTAwX2ludmVyc2UiIG9wZXJhdG9yPSJpbiIgcmVzdWx0PSJwZl8xMDBfc2hhZG93Ii8+PGZlQ29tcG9zaXRlIHhtbG5zPSJodHRwOi8vd3d3LnczLm9yZy8yMDAwL3N2ZyIgaW49InBmXzEwMF9zaGFkb3ciIGluMj0iU291cmNlR3JhcGhpYyIgb3BlcmF0b3I9Im92ZXIiLz48L2ZpbHRlcj48L2RlZnM+PGcgZmlsdGVyPSJ1cmwoI1lDUjZNWmFHcUhsUUE3c1JzZW1FdXloVjROZFoySk4xKSI+PHJlY3QgeD0iMTUxIiB5PSIyMyIgd2lkdGg9IjYiIGhlaWdodD0iMyIgdHJhbnNmb3JtPSJtYXRyaXgoMSwwLDAsMSwwLDApIiBmaWxsPSJyZ2IoMjA5LDIwOSwyMDkpIi8+PC9nPjxyZWN0IHg9IjEyIiB5PSIwIiB3aWR0aD0iMzQiIGhlaWdodD0iMTAiIHRyYW5zZm9ybT0ibWF0cml4KDEsMCwwLDEsMCwwKSIgZmlsbD0icmdiKDkzLDkzLDkzKSIvPjxyZWN0IHg9IjEyIiB5PSIwIiB3aWR0aD0iMzQiIGhlaWdodD0iMTAiIHRyYW5zZm9ybT0ibWF0cml4KDEsMCwwLDEsMCwwKSIgZmlsbD0icmdiKDkzLDkzLDkzKSIgdmVjdG9yLWVmZmVjdD0ibm9uLXNjYWxpbmctc3Ryb2tlIiBzdHJva2Utd2lkdGg9IjAuNSIgc3Ryb2tlPSJyZ2IoNDYsNDYsNDYpIiBzdHJva2UtbGluZWpvaW49Im1pdGVyIiBzdHJva2UtbGluZWNhcD0ic3F1YXJlIiBzdHJva2UtbWl0ZXJsaW1pdD0iMiIvPjxyZWN0IHg9IjEyIiB5PSIxMCIgd2lkdGg9IjM0IiBoZWlnaHQ9IjEwIiB0cmFuc2Zvcm09Im1hdHJpeCgxLDAsMCwxLDAsMCkiIGZpbGw9InJnYig5Myw5Myw5MykiIHZlY3Rvci1lZmZlY3Q9Im5vbi1zY2FsaW5nLXN0cm9rZSIgc3Ryb2tlLXdpZHRoPSIwLjUiIHN0cm9rZT0icmdiKDQ2LDQ2LDQ2KSIgc3Ryb2tlLWxpbmVqb2luPSJtaXRlciIgc3Ryb2tlLWxpbmVjYXA9InNxdWFyZSIgc3Ryb2tlLW1pdGVybGltaXQ9IjIiLz48cmVjdCB4PSIxMiIgeT0iMTkuNSIgd2lkdGg9IjM0IiBoZWlnaHQ9IjEwIiB0cmFuc2Zvcm09Im1hdHJpeCgxLDAsMCwxLDAsMCkiIGZpbGw9InJnYig5Myw5Myw5MykiIHZlY3Rvci1lZmZlY3Q9Im5vbi1zY2FsaW5nLXN0cm9rZSIgc3Ryb2tlLXdpZHRoPSIwLjUiIHN0cm9rZT0icmdiKDQ2LDQ2LDQ2KSIgc3Ryb2tlLWxpbmVqb2luPSJtaXRlciIgc3Ryb2tlLWxpbmVjYXA9InNxdWFyZSIgc3Ryb2tlLW1pdGVybGltaXQ9IjIiLz48cmVjdCB4PSI0NiIgeT0iMCIgd2lkdGg9IjM0IiBoZWlnaHQ9IjEwIiB0cmFuc2Zvcm09Im1hdHJpeCgxLDAsMCwxLDAsMCkiIGZpbGw9InJnYig5Myw5Myw5MykiIHZlY3Rvci1lZmZlY3Q9Im5vbi1zY2FsaW5nLXN0cm9rZSIgc3Ryb2tlLXdpZHRoPSIwLjUiIHN0cm9rZT0icmdiKDQ2LDQ2LDQ2KSIgc3Ryb2tlLWxpbmVqb2luPSJtaXRlciIgc3Ryb2tlLWxpbmVjYXA9InNxdWFyZSIgc3Ryb2tlLW1pdGVybGltaXQ9IjIiLz48cmVjdCB4PSI0NiIgeT0iMTAiIHdpZHRoPSIzNCIgaGVpZ2h0PSIxMCIgdHJhbnNmb3JtPSJtYXRyaXgoMSwwLDAsMSwwLDApIiBmaWxsPSJyZ2IoOTMsOTMsOTMpIiB2ZWN0b3ItZWZmZWN0PSJub24tc2NhbGluZy1zdHJva2UiIHN0cm9rZS13aWR0aD0iMC41IiBzdHJva2U9InJnYig0Niw0Niw0NikiIHN0cm9rZS1saW5lam9pbj0ibWl0ZXIiIHN0cm9rZS1saW5lY2FwPSJzcXVhcmUiIHN0cm9rZS1taXRlcmxpbWl0PSIyIi8+PHJlY3QgeD0iNDYiIHk9IjE5LjUiIHdpZHRoPSIzNCIgaGVpZ2h0PSIxMCIgdHJhbnNmb3JtPSJtYXRyaXgoMSwwLDAsMSwwLDApIiBmaWxsPSJyZ2IoOTMsOTMsOTMpIiB2ZWN0b3ItZWZmZWN0PSJub24tc2NhbGluZy1zdHJva2UiIHN0cm9rZS13aWR0aD0iMC41IiBzdHJva2U9InJnYig0Niw0Niw0NikiIHN0cm9rZS1saW5lam9pbj0ibWl0ZXIiIHN0cm9rZS1saW5lY2FwPSJzcXVhcmUiIHN0cm9rZS1taXRlcmxpbWl0PSIyIi8+PHJlY3QgeD0iODAiIHk9IjAiIHdpZHRoPSIzNCIgaGVpZ2h0PSIxMCIgdHJhbnNmb3JtPSJtYXRyaXgoMSwwLDAsMSwwLDApIiBmaWxsPSJyZ2IoOTMsOTMsOTMpIiB2ZWN0b3ItZWZmZWN0PSJub24tc2NhbGluZy1zdHJva2UiIHN0cm9rZS13aWR0aD0iMC41IiBzdHJva2U9InJnYig0Niw0Niw0NikiIHN0cm9rZS1saW5lam9pbj0ibWl0ZXIiIHN0cm9rZS1saW5lY2FwPSJzcXVhcmUiIHN0cm9rZS1taXRlcmxpbWl0PSIyIi8+PHJlY3QgeD0iODAiIHk9IjEwIiB3aWR0aD0iMzQiIGhlaWdodD0iMTAiIHRyYW5zZm9ybT0ibWF0cml4KDEsMCwwLDEsMCwwKSIgZmlsbD0icmdiKDkzLDkzLDkzKSIgdmVjdG9yLWVmZmVjdD0ibm9uLXNjYWxpbmctc3Ryb2tlIiBzdHJva2Utd2lkdGg9IjAuNSIgc3Ryb2tlPSJyZ2IoNDYsNDYsNDYpIiBzdHJva2UtbGluZWpvaW49Im1pdGVyIiBzdHJva2UtbGluZWNhcD0ic3F1YXJlIiBzdHJva2UtbWl0ZXJsaW1pdD0iMiIvPjxyZWN0IHg9IjgwIiB5PSIxOS41IiB3aWR0aD0iMzQiIGhlaWdodD0iMTAiIHRyYW5zZm9ybT0ibWF0cml4KDEsMCwwLDEsMCwwKSIgZmlsbD0icmdiKDkzLDkzLDkzKSIgdmVjdG9yLWVmZmVjdD0ibm9uLXNjYWxpbmctc3Ryb2tlIiBzdHJva2Utd2lkdGg9IjAuNSIgc3Ryb2tlPSJyZ2IoNDYsNDYsNDYpIiBzdHJva2UtbGluZWpvaW49Im1pdGVyIiBzdHJva2UtbGluZWNhcD0ic3F1YXJlIiBzdHJva2UtbWl0ZXJsaW1pdD0iMiIvPjxyZWN0IHg9IjExNCIgeT0iMCIgd2lkdGg9IjM0IiBoZWlnaHQ9IjEwIiB0cmFuc2Zvcm09Im1hdHJpeCgxLDAsMCwxLDAsMCkiIGZpbGw9InJnYig5Myw5Myw5MykiIHZlY3Rvci1lZmZlY3Q9Im5vbi1zY2FsaW5nLXN0cm9rZSIgc3Ryb2tlLXdpZHRoPSIwLjUiIHN0cm9rZT0icmdiKDQ2LDQ2LDQ2KSIgc3Ryb2tlLWxpbmVqb2luPSJtaXRlciIgc3Ryb2tlLWxpbmVjYXA9InNxdWFyZSIgc3Ryb2tlLW1pdGVybGltaXQ9IjIiLz48cmVjdCB4PSIxMTQiIHk9IjEwIiB3aWR0aD0iMzQiIGhlaWdodD0iMTAiIHRyYW5zZm9ybT0ibWF0cml4KDEsMCwwLDEsMCwwKSIgZmlsbD0icmdiKDkzLDkzLDkzKSIgdmVjdG9yLWVmZmVjdD0ibm9uLXNjYWxpbmctc3Ryb2tlIiBzdHJva2Utd2lkdGg9IjAuNSIgc3Ryb2tlPSJyZ2IoNDYsNDYsNDYpIiBzdHJva2UtbGluZWpvaW49Im1pdGVyIiBzdHJva2UtbGluZWNhcD0ic3F1YXJlIiBzdHJva2UtbWl0ZXJsaW1pdD0iMiIvPjxyZWN0IHg9IjExNCIgeT0iMTkuNSIgd2lkdGg9IjM0IiBoZWlnaHQ9IjEwIiB0cmFuc2Zvcm09Im1hdHJpeCgxLDAsMCwxLDAsMCkiIGZpbGw9InJnYig5Myw5Myw5MykiIHZlY3Rvci1lZmZlY3Q9Im5vbi1zY2FsaW5nLXN0cm9rZSIgc3Ryb2tlLXdpZHRoPSIwLjUiIHN0cm9rZT0icmdiKDQ2LDQ2LDQ2KSIgc3Ryb2tlLWxpbmVqb2luPSJtaXRlciIgc3Ryb2tlLWxpbmVjYXA9InNxdWFyZSIgc3Ryb2tlLW1pdGVybGltaXQ9IjIiLz48cmVjdCB4PSIxNCIgeT0iMiIgd2lkdGg9IjIyIiBoZWlnaHQ9IjEiIHRyYW5zZm9ybT0ibWF0cml4KDEsMCwwLDEsMCwwKSIgZmlsbD0icmdiKDcwLDcwLDcwKSIvPjxyZWN0IHg9IjE0IiB5PSI0LjUiIHdpZHRoPSIyMiIgaGVpZ2h0PSIxIiB0cmFuc2Zvcm09Im1hdHJpeCgxLDAsMCwxLDAsMCkiIGZpbGw9InJnYig3MCw3MCw3MCkiLz48cmVjdCB4PSIxNCIgeT0iNyIgd2lkdGg9IjIyIiBoZWlnaHQ9IjEiIHRyYW5zZm9ybT0ibWF0cml4KDEsMCwwLDEsMCwwKSIgZmlsbD0icmdiKDcwLDcwLDcwKSIvPjxyZWN0IHg9IjE0IiB5PSIxMiIgd2lkdGg9IjIyIiBoZWlnaHQ9IjEiIHRyYW5zZm9ybT0ibWF0cml4KDEsMCwwLDEsMCwwKSIgZmlsbD0icmdiKDcwLDcwLDcwKSIvPjxyZWN0IHg9IjE0IiB5PSIxNC41IiB3aWR0aD0iMjIiIGhlaWdodD0iMSIgdHJhbnNmb3JtPSJtYXRyaXgoMSwwLDAsMSwwLDApIiBmaWxsPSJyZ2IoNzAsNzAsNzApIi8+PHJlY3QgeD0iMTQiIHk9IjE3IiB3aWR0aD0iMjIiIGhlaWdodD0iMSIgdHJhbnNmb3JtPSJtYXRyaXgoMSwwLDAsMSwwLDApIiBmaWxsPSJyZ2IoNzAsNzAsNzApIi8+PHJlY3QgeD0iMTQiIHk9IjIyIiB3aWR0aD0iMjIiIGhlaWdodD0iMSIgdHJhbnNmb3JtPSJtYXRyaXgoMSwwLDAsMSwwLDApIiBmaWxsPSJyZ2IoNzAsNzAsNzApIi8+PHJlY3QgeD0iMTQiIHk9IjI0LjUiIHdpZHRoPSIyMiIgaGVpZ2h0PSIxIiB0cmFuc2Zvcm09Im1hdHJpeCgxLDAsMCwxLDAsMCkiIGZpbGw9InJnYig3MCw3MCw3MCkiLz48cmVjdCB4PSIxNCIgeT0iMjciIHdpZHRoPSIyMiIgaGVpZ2h0PSIxIiB0cmFuc2Zvcm09Im1hdHJpeCgxLDAsMCwxLDAsMCkiIGZpbGw9InJnYig3MCw3MCw3MCkiLz48cmVjdCB4PSIzNy45ODEiIHk9IjEuOTgxIiB3aWR0aD0iNi4wMjQiIGhlaWdodD0iNi4wMTkiIHRyYW5zZm9ybT0ibWF0cml4KDEsMC4wMiwtMC4wMiwxLDAuMTA3LC0wLjgxMSkiIGZpbGw9InJnYig3MCw3MCw3MCkiLz48cmVjdCB4PSIzNy45MjIiIHk9IjIuNSIgd2lkdGg9IjEuMDc4IiBoZWlnaHQ9IjUiIHRyYW5zZm9ybT0ibWF0cml4KDEsMCwwLDEsMCwwKSIgZmlsbD0icmdiKDE1NCwyMTAsMjU1KSIvPjxyZWN0IHg9IjM3Ljk4MSIgeT0iMTEuOTkxIiB3aWR0aD0iNi4wMjQiIGhlaWdodD0iNi4wMTkiIHRyYW5zZm9ybT0ibWF0cml4KDEsMC4wMiwtMC4wMiwxLDAuMzA1LC0wLjgwOSkiIGZpbGw9InJnYig3MCw3MCw3MCkiLz48cmVjdCB4PSIzNy45MjIiIHk9IjEyLjUxIiB3aWR0aD0iMS4wNzgiIGhlaWdodD0iNSIgdHJhbnNmb3JtPSJtYXRyaXgoMSwwLDAsMSwwLDApIiBmaWxsPSJyZ2IoMTU0LDIxMCwyNTUpIi8+PHJlY3QgeD0iMzcuOTgxIiB5PSIyMi4wMDEiIHdpZHRoPSI2LjAyNCIgaGVpZ2h0PSI2LjAxOSIgdHJhbnNmb3JtPSJtYXRyaXgoMSwwLjAyLC0wLjAyLDEsMC41MDMsLTAuODA3KSIgZmlsbD0icmdiKDcwLDcwLDcwKSIvPjxyZWN0IHg9IjM3LjkyMiIgeT0iMjIuNTIiIHdpZHRoPSIxLjA3OCIgaGVpZ2h0PSI1IiB0cmFuc2Zvcm09Im1hdHJpeCgxLDAsMCwxLDAsMCkiIGZpbGw9InJnYigxNTQsMjEwLDI1NSkiLz48cmVjdCB4PSI0Ny45NjgiIHk9IjEuOTIyIiB3aWR0aD0iMjIiIGhlaWdodD0iMSIgdHJhbnNmb3JtPSJtYXRyaXgoMSwwLDAsMSwwLDApIiBmaWxsPSJyZ2IoNzAsNzAsNzApIi8+PHJlY3QgeD0iNDcuOTY4IiB5PSI0LjQyMiIgd2lkdGg9IjIyIiBoZWlnaHQ9IjEiIHRyYW5zZm9ybT0ibWF0cml4KDEsMCwwLDEsMCwwKSIgZmlsbD0icmdiKDcwLDcwLDcwKSIvPjxyZWN0IHg9IjQ3Ljk2OCIgeT0iNi45MjIiIHdpZHRoPSIyMiIgaGVpZ2h0PSIxIiB0cmFuc2Zvcm09Im1hdHJpeCgxLDAsMCwxLDAsMCkiIGZpbGw9InJnYig3MCw3MCw3MCkiLz48cmVjdCB4PSI0Ny45NjgiIHk9IjExLjkyMiIgd2lkdGg9IjIyIiBoZWlnaHQ9IjEiIHRyYW5zZm9ybT0ibWF0cml4KDEsMCwwLDEsMCwwKSIgZmlsbD0icmdiKDcwLDcwLDcwKSIvPjxyZWN0IHg9IjQ3Ljk2OCIgeT0iMTQuNDIyIiB3aWR0aD0iMjIiIGhlaWdodD0iMSIgdHJhbnNmb3JtPSJtYXRyaXgoMSwwLDAsMSwwLDApIiBmaWxsPSJyZ2IoNzAsNzAsNzApIi8+PHJlY3QgeD0iNDcuOTY4IiB5PSIxNi45MjIiIHdpZHRoPSIyMiIgaGVpZ2h0PSIxIiB0cmFuc2Zvcm09Im1hdHJpeCgxLDAsMCwxLDAsMCkiIGZpbGw9InJnYig3MCw3MCw3MCkiLz48cmVjdCB4PSI0Ny45NjgiIHk9IjIxLjkyMiIgd2lkdGg9IjIyIiBoZWlnaHQ9IjEiIHRyYW5zZm9ybT0ibWF0cml4KDEsMCwwLDEsMCwwKSIgZmlsbD0icmdiKDcwLDcwLDcwKSIvPjxyZWN0IHg9IjQ3Ljk2OCIgeT0iMjQuNDIyIiB3aWR0aD0iMjIiIGhlaWdodD0iMSIgdHJhbnNmb3JtPSJtYXRyaXgoMSwwLDAsMSwwLDApIiBmaWxsPSJyZ2IoNzAsNzAsNzApIi8+PHJlY3QgeD0iNDcuOTY4IiB5PSIyNi45MjIiIHdpZHRoPSIyMiIgaGVpZ2h0PSIxIiB0cmFuc2Zvcm09Im1hdHJpeCgxLDAsMCwxLDAsMCkiIGZpbGw9InJnYig3MCw3MCw3MCkiLz48cmVjdCB4PSI3MS45NDkiIHk9IjEuOTAyIiB3aWR0aD0iNi4wMjQiIGhlaWdodD0iNi4wMTkiIHRyYW5zZm9ybT0ibWF0cml4KDEsMC4wMiwtMC4wMiwxLDAuMTEyLC0xLjQ4MykiIGZpbGw9InJnYig3MCw3MCw3MCkiLz48cmVjdCB4PSI3MS44OSIgeT0iMi40MjIiIHdpZHRoPSIxLjA3OCIgaGVpZ2h0PSI1IiB0cmFuc2Zvcm09Im1hdHJpeCgxLDAsMCwxLDAsMCkiIGZpbGw9InJnYigxNTQsMjEwLDI1NSkiLz48cmVjdCB4PSI3MS45NDkiIHk9IjExLjkxMiIgd2lkdGg9IjYuMDI0IiBoZWlnaHQ9IjYuMDE5IiB0cmFuc2Zvcm09Im1hdHJpeCgxLDAuMDIsLTAuMDIsMSwwLjMxLC0xLjQ4MSkiIGZpbGw9InJnYig3MCw3MCw3MCkiLz48cmVjdCB4PSI3MS44OSIgeT0iMTIuNDMyIiB3aWR0aD0iMS4wNzgiIGhlaWdodD0iNSIgdHJhbnNmb3JtPSJtYXRyaXgoMSwwLDAsMSwwLDApIiBmaWxsPSJyZ2IoMTU0LDIxMCwyNTUpIi8+PHJlY3QgeD0iNzEuOTQ5IiB5PSIyMS45MjIiIHdpZHRoPSI2LjAyNCIgaGVpZ2h0PSI2LjAxOSIgdHJhbnNmb3JtPSJtYXRyaXgoMSwwLjAyLC0wLjAyLDEsMC41MDgsLTEuNDc5KSIgZmlsbD0icmdiKDcwLDcwLDcwKSIvPjxyZWN0IHg9IjcxLjg5IiB5PSIyMi40NDIiIHdpZHRoPSIxLjA3OCIgaGVpZ2h0PSI1IiB0cmFuc2Zvcm09Im1hdHJpeCgxLDAsMCwxLDAsMCkiIGZpbGw9InJnYigxNTQsMjEwLDI1NSkiLz48cmVjdCB4PSI4MS45NjgiIHk9IjEuOTIyIiB3aWR0aD0iMjIiIGhlaWdodD0iMSIgdHJhbnNmb3JtPSJtYXRyaXgoMSwwLDAsMSwwLDApIiBmaWxsPSJyZ2IoNzAsNzAsNzApIi8+PHJlY3QgeD0iODEuOTY4IiB5PSI0LjQyMiIgd2lkdGg9IjIyIiBoZWlnaHQ9IjEiIHRyYW5zZm9ybT0ibWF0cml4KDEsMCwwLDEsMCwwKSIgZmlsbD0icmdiKDcwLDcwLDcwKSIvPjxyZWN0IHg9IjgxLjk2OCIgeT0iNi45MjIiIHdpZHRoPSIyMiIgaGVpZ2h0PSIxIiB0cmFuc2Zvcm09Im1hdHJpeCgxLDAsMCwxLDAsMCkiIGZpbGw9InJnYig3MCw3MCw3MCkiLz48cmVjdCB4PSI4MS45NjgiIHk9IjExLjkyMiIgd2lkdGg9IjIyIiBoZWlnaHQ9IjEiIHRyYW5zZm9ybT0ibWF0cml4KDEsMCwwLDEsMCwwKSIgZmlsbD0icmdiKDcwLDcwLDcwKSIvPjxyZWN0IHg9IjgxLjk2OCIgeT0iMTQuNDIyIiB3aWR0aD0iMjIiIGhlaWdodD0iMSIgdHJhbnNmb3JtPSJtYXRyaXgoMSwwLDAsMSwwLDApIiBmaWxsPSJyZ2IoNzAsNzAsNzApIi8+PHJlY3QgeD0iODEuOTY4IiB5PSIxNi45MjIiIHdpZHRoPSIyMiIgaGVpZ2h0PSIxIiB0cmFuc2Zvcm09Im1hdHJpeCgxLDAsMCwxLDAsMCkiIGZpbGw9InJnYig3MCw3MCw3MCkiLz48cmVjdCB4PSI4MS45NjgiIHk9IjIxLjkyMiIgd2lkdGg9IjIyIiBoZWlnaHQ9IjEiIHRyYW5zZm9ybT0ibWF0cml4KDEsMCwwLDEsMCwwKSIgZmlsbD0icmdiKDcwLDcwLDcwKSIvPjxyZWN0IHg9IjgxLjk2OCIgeT0iMjQuNDIyIiB3aWR0aD0iMjIiIGhlaWdodD0iMSIgdHJhbnNmb3JtPSJtYXRyaXgoMSwwLDAsMSwwLDApIiBmaWxsPSJyZ2IoNzAsNzAsNzApIi8+PHJlY3QgeD0iODEuOTY4IiB5PSIyNi45MjIiIHdpZHRoPSIyMiIgaGVpZ2h0PSIxIiB0cmFuc2Zvcm09Im1hdHJpeCgxLDAsMCwxLDAsMCkiIGZpbGw9InJnYig3MCw3MCw3MCkiLz48cmVjdCB4PSIxMDUuOTQ5IiB5PSIxLjkwMiIgd2lkdGg9IjYuMDI0IiBoZWlnaHQ9IjYuMDE5IiB0cmFuc2Zvcm09Im1hdHJpeCgxLDAuMDIsLTAuMDIsMSwwLjExOSwtMi4xNTYpIiBmaWxsPSJyZ2IoNzAsNzAsNzApIi8+PHJlY3QgeD0iMTA1Ljg5IiB5PSIyLjQyMiIgd2lkdGg9IjEuMDc4IiBoZWlnaHQ9IjUiIHRyYW5zZm9ybT0ibWF0cml4KDEsMCwwLDEsMCwwKSIgZmlsbD0icmdiKDE1NCwyMTAsMjU1KSIvPjxyZWN0IHg9IjEwNS45NDkiIHk9IjExLjkxMiIgd2lkdGg9IjYuMDI0IiBoZWlnaHQ9IjYuMDE5IiB0cmFuc2Zvcm09Im1hdHJpeCgxLDAuMDIsLTAuMDIsMSwwLjMxNywtMi4xNTQpIiBmaWxsPSJyZ2IoNzAsNzAsNzApIi8+PHJlY3QgeD0iMTA1Ljg5IiB5PSIxMi40MzIiIHdpZHRoPSIxLjA3OCIgaGVpZ2h0PSI1IiB0cmFuc2Zvcm09Im1hdHJpeCgxLDAsMCwxLDAsMCkiIGZpbGw9InJnYigxNTQsMjEwLDI1NSkiLz48cmVjdCB4PSIxMDUuOTQ5IiB5PSIyMS45MjIiIHdpZHRoPSI2LjAyNCIgaGVpZ2h0PSI2LjAxOSIgdHJhbnNmb3JtPSJtYXRyaXgoMSwwLjAyLC0wLjAyLDEsMC41MTUsLTIuMTUyKSIgZmlsbD0icmdiKDcwLDcwLDcwKSIvPjxyZWN0IHg9IjEwNS44OSIgeT0iMjIuNDQyIiB3aWR0aD0iMS4wNzgiIGhlaWdodD0iNSIgdHJhbnNmb3JtPSJtYXRyaXgoMSwwLDAsMSwwLDApIiBmaWxsPSJyZ2IoMTU0LDIxMCwyNTUpIi8+PHJlY3QgeD0iMTE1Ljk2OCIgeT0iMS45MjIiIHdpZHRoPSIyMiIgaGVpZ2h0PSIxIiB0cmFuc2Zvcm09Im1hdHJpeCgxLDAsMCwxLDAsMCkiIGZpbGw9InJnYig3MCw3MCw3MCkiLz48cmVjdCB4PSIxMTUuOTY4IiB5PSI0LjQyMiIgd2lkdGg9IjIyIiBoZWlnaHQ9IjEiIHRyYW5zZm9ybT0ibWF0cml4KDEsMCwwLDEsMCwwKSIgZmlsbD0icmdiKDcwLDcwLDcwKSIvPjxyZWN0IHg9IjExNS45NjgiIHk9IjYuOTIyIiB3aWR0aD0iMjIiIGhlaWdodD0iMSIgdHJhbnNmb3JtPSJtYXRyaXgoMSwwLDAsMSwwLDApIiBmaWxsPSJyZ2IoNzAsNzAsNzApIi8+PHJlY3QgeD0iMTE1Ljk2OCIgeT0iMTEuOTIyIiB3aWR0aD0iMjIiIGhlaWdodD0iMSIgdHJhbnNmb3JtPSJtYXRyaXgoMSwwLDAsMSwwLDApIiBmaWxsPSJyZ2IoNzAsNzAsNzApIi8+PHJlY3QgeD0iMTE1Ljk2OCIgeT0iMTQuNDIyIiB3aWR0aD0iMjIiIGhlaWdodD0iMSIgdHJhbnNmb3JtPSJtYXRyaXgoMSwwLDAsMSwwLDApIiBmaWxsPSJyZ2IoNzAsNzAsNzApIi8+PHJlY3QgeD0iMTE1Ljk2OCIgeT0iMTYuOTIyIiB3aWR0aD0iMjIiIGhlaWdodD0iMSIgdHJhbnNmb3JtPSJtYXRyaXgoMSwwLDAsMSwwLDApIiBmaWxsPSJyZ2IoNzAsNzAsNzApIi8+PHJlY3QgeD0iMTE1Ljk2OCIgeT0iMjEuOTIyIiB3aWR0aD0iMjIiIGhlaWdodD0iMSIgdHJhbnNmb3JtPSJtYXRyaXgoMSwwLDAsMSwwLDApIiBmaWxsPSJyZ2IoNzAsNzAsNzApIi8+PHJlY3QgeD0iMTE1Ljk2OCIgeT0iMjQuNDIyIiB3aWR0aD0iMjIiIGhlaWdodD0iMSIgdHJhbnNmb3JtPSJtYXRyaXgoMSwwLDAsMSwwLDApIiBmaWxsPSJyZ2IoNzAsNzAsNzApIi8+PHJlY3QgeD0iMTE1Ljk2OCIgeT0iMjYuOTIyIiB3aWR0aD0iMjIiIGhlaWdodD0iMSIgdHJhbnNmb3JtPSJtYXRyaXgoMSwwLDAsMSwwLDApIiBmaWxsPSJyZ2IoNzAsNzAsNzApIi8+PHJlY3QgeD0iMTM5Ljk0OSIgeT0iMS45MDIiIHdpZHRoPSI2LjAyNCIgaGVpZ2h0PSI2LjAxOSIgdHJhbnNmb3JtPSJtYXRyaXgoMSwwLjAyLC0wLjAyLDEsMC4xMjUsLTIuODI5KSIgZmlsbD0icmdiKDcwLDcwLDcwKSIvPjxyZWN0IHg9IjEzOS44OSIgeT0iMi40MjIiIHdpZHRoPSIxLjA3OCIgaGVpZ2h0PSI1IiB0cmFuc2Zvcm09Im1hdHJpeCgxLDAsMCwxLDAsMCkiIGZpbGw9InJnYigxNTQsMjEwLDI1NSkiLz48cmVjdCB4PSIxMzkuOTQ5IiB5PSIxMS45MTIiIHdpZHRoPSI2LjAyNCIgaGVpZ2h0PSI2LjAxOSIgdHJhbnNmb3JtPSJtYXRyaXgoMSwwLjAyLC0wLjAyLDEsMC4zMjMsLTIuODI3KSIgZmlsbD0icmdiKDcwLDcwLDcwKSIvPjxyZWN0IHg9IjEzOS44OSIgeT0iMTIuNDMyIiB3aWR0aD0iMS4wNzgiIGhlaWdodD0iNSIgdHJhbnNmb3JtPSJtYXRyaXgoMSwwLDAsMSwwLDApIiBmaWxsPSJyZ2IoMTU0LDIxMCwyNTUpIi8+PHJlY3QgeD0iMTM5Ljk0OSIgeT0iMjEuOTIyIiB3aWR0aD0iNi4wMjQiIGhlaWdodD0iNi4wMTkiIHRyYW5zZm9ybT0ibWF0cml4KDEsMC4wMiwtMC4wMiwxLDAuNTIyLC0yLjgyNSkiIGZpbGw9InJnYig3MCw3MCw3MCkiLz48cmVjdCB4PSIxMzkuODkiIHk9IjIyLjQ0MiIgd2lkdGg9IjEuMDc4IiBoZWlnaHQ9IjUiIHRyYW5zZm9ybT0ibWF0cml4KDEsMCwwLDEsMCwwKSIgZmlsbD0icmdiKDE1NCwyMTAsMjU1KSIvPjxjaXJjbGUgdmVjdG9yLWVmZmVjdD0ibm9uLXNjYWxpbmctc3Ryb2tlIiBjeD0iMTAuNSIgY3k9IjEwLjk5OTk5OTk5OTk5OTk5NSIgcj0iMC41IiBmaWxsPSJyZ2IoMjU1LDEyMSwxMjEpIi8+PGNpcmNsZSB2ZWN0b3ItZWZmZWN0PSJub24tc2NhbGluZy1zdHJva2UiIGN4PSIxMC41IiBjeT0iMTIuOTk5OTk5OTk5OTk5OTk2IiByPSIwLjUiIGZpbGw9InJnYigyNTUsMTIxLDEyMSkiLz48Y2lyY2xlIHZlY3Rvci1lZmZlY3Q9Im5vbi1zY2FsaW5nLXN0cm9rZSIgY3g9IjEwLjUiIGN5PSIxNC45OTk5OTk5OTk5OTk5OTgiIHI9IjAuNSIgZmlsbD0icmdiKDE3MywyMTMsMTY2KSIvPjxjaXJjbGUgdmVjdG9yLWVmZmVjdD0ibm9uLXNjYWxpbmctc3Ryb2tlIiBjeD0iMTAuNSIgY3k9IjE3IiByPSIwLjUiIGZpbGw9InJnYigxNzMsMjEzLDE2NikiLz48Y2lyY2xlIHZlY3Rvci1lZmZlY3Q9Im5vbi1zY2FsaW5nLXN0cm9rZSIgY3g9IjEwLjUiIGN5PSIxOSIgcj0iMC41IiBmaWxsPSJyZ2IoMTczLDIxMywxNjYpIi8+PGNpcmNsZSB2ZWN0b3ItZWZmZWN0PSJub24tc2NhbGluZy1zdHJva2UiIGN4PSI0NSIgY3k9IjE4LjA2ODM1MzY5OTE3NjczIiByPSIwLjUiIGZpbGw9InJnYigxNzMsMjEzLDE2NikiLz48Y2lyY2xlIHZlY3Rvci1lZmZlY3Q9Im5vbi1zY2FsaW5nLXN0cm9rZSIgY3g9IjQ1IiBjeT0iMjguMDc4MzkyOTQ0NjM0OTg0IiByPSIwLjUiIGZpbGw9InJnYigxNzMsMjEzLDE2NikiLz48L2c+PC9zdmc+;imageBorder=#000000;strokeWidth=2;labelPosition=right;align=left;spacingLeft=22;" vertex="1" parent="KMFgPlAvmUF1ZaRBxyUd-1">
          <mxGeometry x="523" y="871" width="218" height="40" as="geometry" />
        </mxCell>
      </root>
    </mxGraphModel>
  </diagram>
</mxfile>
